<?xml version="1.0" encoding="utf-8"?>
<!-- Generator: Adobe Illustrator 23.0.1, SVG Export Plug-In . SVG Version: 6.00 Build 0)  -->
<svg version="1.1" id="Layer_1" xmlns="http://www.w3.org/2000/svg" xmlns:xlink="http://www.w3.org/1999/xlink" x="0px" y="0px"
	 viewBox="0 0 100 100" style="enable-background:new 0 0 100 100;" xml:space="preserve">
<style type="text/css">
	.st0{fill:#FFFFFF;}
</style>
<g>
	<path class="st0" d="M74.24,38.98L52.72,27.15c-0.37-0.21-0.83-0.21-1.2,0l-8.1,4.45c-0.18,0.05-0.35,0.14-0.5,0.27l-12.93,7.1
		c-0.4,0.22-0.65,0.64-0.65,1.1v2.56H14.9c-0.69,0-1.25,0.56-1.25,1.25c0,0.69,0.56,1.25,1.25,1.25h14.44v4.51h-7.18
		c-0.69,0-1.25,0.56-1.25,1.25c0,0.69,0.56,1.25,1.25,1.25h7.18v6.51H18.82c-0.69,0-1.25,0.56-1.25,1.25c0,0.69,0.56,1.25,1.25,1.25
		h10.51v2.56c0,0.46,0.25,0.88,0.65,1.1l21.53,11.82c0.19,0.1,0.4,0.15,0.6,0.15s0.41-0.05,0.6-0.15l21.53-11.82
		c0.4-0.22,0.65-0.64,0.65-1.1v-5.6c0-0.69-0.56-1.25-1.25-1.25s-1.25,0.56-1.25,1.25v4.86L53.37,73.42V52.63l6.05-3.32v5.27
		c0,0.44,0.23,0.85,0.61,1.08c0.2,0.12,0.42,0.17,0.64,0.17c0.21,0,0.42-0.05,0.6-0.15l4.61-2.54c0.4-0.22,0.65-0.64,0.65-1.1V45.4
		l5.86-3.22v5.91c0,0.69,0.56,1.25,1.25,1.25s1.25-0.56,1.25-1.25v-8.02C74.89,39.62,74.64,39.2,74.24,38.98z M50.86,73.42
		L31.84,62.97V42.19l19.02,10.45V73.42z M52.11,50.47L33.19,40.07l5.95-3.27L58.06,47.2L52.11,50.47z M60.66,45.77L41.74,35.38
		l2.05-1.13l18.93,10.39L60.66,45.77z M64.03,51.31l-2.11,1.16v-4.53l2.11-1.16V51.31z M65.32,43.22L46.39,32.82l5.73-3.14
		l18.93,10.39L65.32,43.22z"/>
	<path class="st0" d="M73.64,51.85c-0.33,0-0.65,0.13-0.88,0.37c-0.23,0.23-0.37,0.55-0.37,0.88c0,0.33,0.13,0.65,0.37,0.88
		c0.23,0.23,0.56,0.37,0.88,0.37s0.65-0.13,0.88-0.37c0.23-0.23,0.37-0.56,0.37-0.88c0-0.33-0.13-0.65-0.37-0.88
		C74.29,51.98,73.97,51.85,73.64,51.85z"/>
	<path class="st0" d="M13.86,58.65h-1.79c-0.69,0-1.25,0.56-1.25,1.25c0,0.69,0.56,1.25,1.25,1.25h1.79c0.69,0,1.25-0.56,1.25-1.25
		C15.11,59.21,14.55,58.65,13.86,58.65z"/>
	<path class="st0" d="M18.41,50.89c0-0.33-0.13-0.65-0.37-0.88c-0.23-0.23-0.56-0.37-0.88-0.37c-0.33,0-0.65,0.13-0.88,0.37
		c-0.23,0.23-0.37,0.56-0.37,0.88c0,0.33,0.13,0.65,0.37,0.88c0.23,0.23,0.56,0.37,0.88,0.37c0.33,0,0.65-0.13,0.88-0.37
		C18.27,51.54,18.41,51.22,18.41,50.89z"/>
</g>
</svg>
