<?xml version="1.0" encoding="utf-8"?>
<!-- Generator: Adobe Illustrator 23.0.1, SVG Export Plug-In . SVG Version: 6.00 Build 0)  -->
<svg version="1.1" id="Layer_1" xmlns="http://www.w3.org/2000/svg" xmlns:xlink="http://www.w3.org/1999/xlink" x="0px" y="0px"
	 viewBox="0 0 100 100" style="enable-background:new 0 0 100 100;" xml:space="preserve">
<g id="Calculator_10_">
	<path d="M59.59,74.94H42.77c-1.91,0-3.46-1.55-3.46-3.46V48.71c0-1.91,1.55-3.46,3.46-3.46h16.83c1.91,0,3.46,1.55,3.46,3.46v22.77
		C63.06,73.39,61.51,74.94,59.59,74.94z M42.77,46.23c-1.37,0-2.47,1.11-2.47,2.47v22.77c0,1.37,1.11,2.47,2.47,2.47h16.83
		c1.37,0,2.47-1.11,2.47-2.47V48.71c0-1.37-1.11-2.47-2.47-2.47H42.77z"/>
	<path d="M52.66,72.96h-2.97c-0.82,0-1.48-0.66-1.48-1.48l0,0v-1.98c0-0.82,0.66-1.48,1.48-1.48h2.97c0.82,0,1.48,0.66,1.48,1.48
		v1.98C54.15,72.29,53.48,72.96,52.66,72.96L52.66,72.96z M49.69,69c-0.27,0-0.49,0.22-0.49,0.49v1.98c0,0.27,0.22,0.49,0.49,0.49
		h2.97c0.27,0,0.49-0.22,0.49-0.49v-1.98c0-0.27-0.22-0.49-0.49-0.49H49.69z"/>
	<path d="M45.73,72.96h-2.97c-0.82,0-1.48-0.66-1.48-1.48l0,0v-1.98c0-0.82,0.66-1.48,1.48-1.48h2.97c0.82,0,1.48,0.66,1.48,1.48
		v1.98C47.22,72.29,46.55,72.96,45.73,72.96L45.73,72.96z M42.77,69c-0.27,0-0.49,0.22-0.49,0.49v1.98c0,0.27,0.22,0.49,0.49,0.49
		h2.97c0.27,0,0.49-0.22,0.49-0.49v-1.98c0-0.27-0.22-0.49-0.49-0.49H42.77z"/>
	<path d="M59.59,72.96h-2.97c-0.82,0-1.48-0.66-1.48-1.48l0,0v-7.92c0-0.82,0.66-1.48,1.48-1.48h2.97c0.82,0,1.48,0.66,1.48,1.48
		v7.92C61.08,72.29,60.41,72.96,59.59,72.96L59.59,72.96z M56.62,63.06c-0.27,0-0.49,0.22-0.49,0.49v7.92
		c0,0.27,0.22,0.49,0.49,0.49h2.97c0.27,0,0.49-0.22,0.49-0.49v-7.92c0-0.27-0.22-0.49-0.49-0.49H56.62z"/>
	<path d="M52.66,67.02h-2.97c-0.82,0-1.48-0.66-1.48-1.48v-1.98c0-0.82,0.66-1.48,1.48-1.48h2.97c0.82,0,1.48,0.66,1.48,1.48v1.98
		C54.15,66.35,53.48,67.02,52.66,67.02z M49.69,63.06c-0.27,0-0.49,0.22-0.49,0.49v1.98c0,0.27,0.22,0.49,0.49,0.49h2.97
		c0.27,0,0.49-0.22,0.49-0.49v-1.98c0-0.27-0.22-0.49-0.49-0.49H49.69z"/>
	<path d="M45.73,67.02h-2.97c-0.82,0-1.48-0.66-1.48-1.48v-1.98c0-0.82,0.66-1.48,1.48-1.48h2.97c0.82,0,1.48,0.66,1.48,1.48v1.98
		C47.22,66.35,46.55,67.02,45.73,67.02z M42.77,63.06c-0.27,0-0.49,0.22-0.49,0.49v1.98c0,0.27,0.22,0.49,0.49,0.49h2.97
		c0.27,0,0.49-0.22,0.49-0.49v-1.98c0-0.27-0.22-0.49-0.49-0.49H42.77z"/>
	<path d="M52.66,61.08h-2.97c-0.82,0-1.48-0.66-1.48-1.48v-1.98c0-0.82,0.66-1.48,1.48-1.48h2.97c0.82,0,1.48,0.66,1.48,1.48v1.98
		C54.15,60.41,53.48,61.08,52.66,61.08z M49.69,57.12c-0.27,0-0.49,0.22-0.49,0.49v1.98c0,0.27,0.22,0.49,0.49,0.49h2.97
		c0.27,0,0.49-0.22,0.49-0.49v-1.98c0-0.27-0.22-0.49-0.49-0.49H49.69z"/>
	<path d="M45.73,61.08h-2.97c-0.82,0-1.48-0.66-1.48-1.48v-1.98c0-0.82,0.66-1.48,1.48-1.48h2.97c0.82,0,1.48,0.66,1.48,1.48v1.98
		C47.22,60.41,46.55,61.08,45.73,61.08z M42.77,57.12c-0.27,0-0.49,0.22-0.49,0.49v1.98c0,0.27,0.22,0.49,0.49,0.49h2.97
		c0.27,0,0.49-0.22,0.49-0.49v-1.98c0-0.27-0.22-0.49-0.49-0.49H42.77z"/>
	<path d="M59.59,61.08h-2.97c-0.82,0-1.48-0.66-1.48-1.48v-1.98c0-0.82,0.66-1.48,1.48-1.48h2.97c0.82,0,1.48,0.66,1.48,1.48v1.98
		C61.08,60.41,60.41,61.08,59.59,61.08z M56.62,57.12c-0.27,0-0.49,0.22-0.49,0.49v1.98c0,0.27,0.22,0.49,0.49,0.49h2.97
		c0.27,0,0.49-0.22,0.49-0.49v-1.98c0-0.27-0.22-0.49-0.49-0.49H56.62z"/>
	<path d="M59.59,54.15H42.77c-0.82,0-1.48-0.66-1.48-1.48v-3.96c0-0.82,0.66-1.48,1.48-1.48h16.83c0.82,0,1.48,0.66,1.48,1.48v3.96
		C61.08,53.48,60.41,54.15,59.59,54.15z M42.77,48.21c-0.27,0-0.49,0.22-0.49,0.49v3.96c0,0.27,0.22,0.49,0.49,0.49h16.83
		c0.27,0,0.49-0.22,0.49-0.49v-3.96c0-0.27-0.22-0.49-0.49-0.49H42.77z"/>
	<path d="M58.11,52.66c-0.82,0-1.48-0.66-1.48-1.48v-0.99c0-0.82,0.66-1.48,1.48-1.48c0.82,0,1.48,0.66,1.48,1.48v0.99
		C59.59,52,58.93,52.66,58.11,52.66z M58.11,49.69c-0.27,0-0.49,0.22-0.49,0.49v0.99c0,0.27,0.22,0.49,0.49,0.49
		c0.27,0,0.49-0.22,0.49-0.49v-0.99C58.6,49.92,58.38,49.69,58.11,49.69z"/>
</g>
</svg>
