<?xml version="1.0" encoding="utf-8"?>
<!-- Generator: Adobe Illustrator 23.0.1, SVG Export Plug-In . SVG Version: 6.00 Build 0)  -->
<svg version="1.1" id="Layer_1" xmlns="http://www.w3.org/2000/svg" xmlns:xlink="http://www.w3.org/1999/xlink" x="0px" y="0px"
	 viewBox="0 0 100 100" style="enable-background:new 0 0 100 100;" xml:space="preserve">
<g>
	<path d="M71.32,42.83c-0.14-0.14-0.32-0.26-0.51-0.33l-5.9-2.07V20.62v-0.14c-0.01-0.03-0.01-0.07,0-0.1
		c-0.02-0.1-0.05-0.2-0.09-0.3L59.11,6.82C58.9,6.32,58.4,6,57.86,6h-39.9c-0.54,0-1.03,0.32-1.25,0.82l-5.7,13.27
		c-0.04,0.1-0.06,0.2-0.08,0.3c0,0.03,0,0.07,0,0.1c0,0.04,0,0.09,0,0.14v39.91c0,0.74,0.59,1.34,1.33,1.35H46l1.41,4.02
		c0.07,0.19,0.18,0.36,0.33,0.51l21.85,21.86c1.11,1.11,2.62,1.73,4.19,1.73s3.08-0.62,4.19-1.73l15.21-15.21
		c1.11-1.11,1.73-2.62,1.73-4.19s-0.62-3.08-1.73-4.19L71.32,42.83z M56.98,8.71l4.52,10.56H45.5L44.38,8.71H56.98z M34.18,8.71
		h7.48l1.12,10.56h-9.74L34.18,8.71z M32.89,21.98h10.08v13.55H32.89V21.98z M18.86,8.71h12.59l-1.12,10.56H14.32L18.86,8.71z
		 M13.62,59.18v-37.2h16.57v14.91c0,0.75,0.61,1.35,1.35,1.35h12.75c0.37,0.01,0.72-0.12,0.99-0.38c0.26-0.26,0.41-0.61,0.41-0.97
		V21.98h16.52v17.51l-3.08-1.08c-2.96-1.04-6.19-0.92-9.07,0.34c-2.87,1.25-5.16,3.54-6.41,6.41c-1.25,2.87-1.37,6.11-0.34,9.07
		l1.74,4.96L13.62,59.18z M91.3,71.15L76.05,86.36c-0.6,0.59-1.41,0.92-2.26,0.92c-0.84,0-1.66-0.33-2.26-0.92L49.9,64.68
		l-4.04-11.35c-0.81-2.31-0.72-4.84,0.26-7.09c0.98-2.25,2.77-4.04,5.02-5.02c2.25-0.98,4.78-1.07,7.09-0.26l11.39,4L91.3,66.59v0
		c0.6,0.61,0.93,1.43,0.92,2.28c-0.01,0.85-0.35,1.67-0.96,2.27L91.3,71.15z"/>
	<path d="M50.79,45.88c-1.14,1.14-1.78,2.68-1.77,4.29c0,1.61,0.64,3.15,1.78,4.29c1.14,1.14,2.68,1.78,4.29,1.78
		s3.15-0.64,4.29-1.78c1.14-1.14,1.78-2.68,1.78-4.29c0-1.61-0.64-3.15-1.77-4.29c-1.14-1.15-2.68-1.79-4.3-1.79
		S51.92,44.73,50.79,45.88L50.79,45.88z M57.43,52.52c-0.63,0.63-1.49,0.98-2.38,0.98c-0.89,0-1.75-0.35-2.38-0.98
		c-0.63-0.63-0.99-1.49-0.99-2.38c0-0.89,0.35-1.75,0.99-2.38c0.63-0.63,1.49-0.99,2.38-0.99c0.89,0,1.75,0.36,2.38,0.99
		c0.63,0.63,0.99,1.49,0.99,2.38C58.42,51.03,58.06,51.89,57.43,52.52L57.43,52.52z"/>
	<path d="M79.47,56.91c-0.25-0.26-0.6-0.4-0.96-0.4s-0.7,0.14-0.96,0.4l-0.73,0.73c-1.49-0.92-3.32-1.11-4.97-0.52
		C70.2,57.7,68.9,59,68.32,60.65c-0.58,1.65-0.39,3.48,0.52,4.97l-4.27,4.26c-0.19-0.55-0.22-1.14-0.09-1.7
		c0.13-0.56,0.41-1.08,0.82-1.49c0.5-0.53,0.48-1.37-0.03-1.88s-1.35-0.53-1.88-0.03c-0.92,0.92-1.5,2.13-1.66,3.42
		c-0.15,1.29,0.13,2.6,0.82,3.71l-0.73,0.73c-0.39,0.39-0.5,0.97-0.29,1.48c0.21,0.51,0.7,0.84,1.25,0.84c0.36,0,0.72-0.14,0.98-0.4
		l0.73-0.73c1.18,0.72,2.58,1,3.94,0.79c1.37-0.22,2.61-0.91,3.51-1.96c0.9-1.05,1.39-2.39,1.39-3.77c0-1.07-0.29-2.12-0.86-3.03
		l4.25-4.3c0.19,0.55,0.22,1.13,0.09,1.7c-0.13,0.56-0.41,1.08-0.82,1.49c-0.26,0.25-0.4,0.6-0.4,0.96c0,0.36,0.14,0.71,0.4,0.96
		c0.53,0.52,1.38,0.52,1.91,0c0.92-0.92,1.5-2.13,1.65-3.42c0.15-1.29-0.13-2.6-0.81-3.71l0.73-0.68c0.26-0.25,0.41-0.6,0.41-0.97
		C79.88,57.51,79.73,57.16,79.47,56.91L79.47,56.91z M69.69,71.07c-0.42,0.39-0.93,0.67-1.49,0.79c-0.56,0.12-1.14,0.09-1.69-0.09
		l3.9-3.9c0.11,0.32,0.17,0.66,0.18,1C70.59,69.7,70.27,70.49,69.69,71.07L69.69,71.07z M70.87,63.58L70.87,63.58
		c-0.19-0.55-0.22-1.14-0.09-1.7c0.13-0.56,0.42-1.08,0.83-1.49c0.41-0.41,0.93-0.69,1.49-0.82c0.56-0.13,1.15-0.1,1.7,0.09
		L70.87,63.58z"/>
	<path d="M37.92,52.77H18.95h0c-0.75,0-1.36,0.61-1.36,1.36c0,0.75,0.61,1.35,1.36,1.35h18.97h0c0.75,0,1.36-0.61,1.36-1.35
		C39.27,53.38,38.67,52.77,37.92,52.77z"/>
</g>
</svg>
