<?xml version="1.0" encoding="utf-8"?>
<!-- Generator: Adobe Illustrator 23.0.1, SVG Export Plug-In . SVG Version: 6.00 Build 0)  -->
<svg version="1.1" id="Layer_1" xmlns="http://www.w3.org/2000/svg" xmlns:xlink="http://www.w3.org/1999/xlink" x="0px" y="0px"
	 viewBox="0 0 100 100" style="enable-background:new 0 0 100 100;" xml:space="preserve">
<style type="text/css">
	.st0{fill-rule:evenodd;clip-rule:evenodd;}
</style>
<g>
	<path class="st0" d="M62.88,32c-1.03,0.02-2.06,0.42-2.84,1.2L44.87,48.37c-0.15,0.15-0.25,0.33-0.3,0.54l-1.26,5.27
		c-0.09,0.38,0.02,0.79,0.3,1.07c0.28,0.28,0.68,0.39,1.07,0.3l5.26-1.26c0.2-0.05,0.39-0.15,0.54-0.3l15.16-15.16
		c1.57-1.57,1.63-4.12,0.07-5.68C64.94,32.36,63.91,31.98,62.88,32L62.88,32z M62.9,34.25c0.44-0.01,0.88,0.15,1.21,0.49
		c0.67,0.67,0.66,1.75-0.08,2.49l-0.33,0.33l-2.4-2.41l0.33-0.33C62.01,34.44,62.46,34.26,62.9,34.25L62.9,34.25z M37.56,34.88
		c-2.59,0-4.71,2.11-4.71,4.7v21.71c0,2.59,2.12,4.71,4.71,4.71h21.71c2.59,0,4.71-2.12,4.71-4.71V47.12c0-0.3-0.12-0.59-0.33-0.81
		c-0.21-0.21-0.5-0.33-0.81-0.33c-0.3,0-0.59,0.12-0.8,0.33s-0.33,0.5-0.33,0.8v14.17c0,1.37-1.07,2.44-2.44,2.44H37.56
		c-1.37,0-2.44-1.07-2.44-2.44V39.58c0-1.37,1.07-2.44,2.44-2.44h14.08h0c0.62,0,1.13-0.51,1.13-1.13c0-0.62-0.51-1.13-1.13-1.13
		L37.56,34.88z M59.7,36.75l2.4,2.4L50.84,50.42l-2.41-2.41L59.7,36.75z M46.83,49.62l2.41,2.41l-0.12,0.12l-3.16,0.75l0.75-3.15
		L46.83,49.62z"/>
</g>
</svg>
