<?xml version="1.0" encoding="utf-8"?>
<!-- Generator: Adobe Illustrator 23.0.1, SVG Export Plug-In . SVG Version: 6.00 Build 0)  -->
<svg version="1.1" id="Layer_1" xmlns="http://www.w3.org/2000/svg" xmlns:xlink="http://www.w3.org/1999/xlink" x="0px" y="0px"
	 viewBox="0 0 100 100" style="enable-background:new 0 0 100 100;" xml:space="preserve">
<g>
	<path d="M76.82,70.68h-1.45l-4-7.2h3.39c0.27,0,0.53-0.11,0.73-0.3c0.19-0.19,0.3-0.45,0.3-0.73V50.11c0-0.27-0.11-0.53-0.3-0.73
		c-0.19-0.19-0.45-0.3-0.73-0.3H68.6c-0.57,0-1.03,0.46-1.03,1.03v3.08h-3.08c-0.57,0-1.03,0.46-1.03,1.03v8.23
		c0,0.27,0.11,0.53,0.3,0.73c0.19,0.19,0.45,0.3,0.73,0.3h3.39l-4,7.2h-3.51v-1.03c0-0.96-0.44-1.86-1.2-2.44
		c-0.76-0.58-1.74-0.78-2.67-0.54c-0.92,0.24-1.68,0.9-2.06,1.78l-0.99-3.94h6.91c0.27,0,0.53-0.11,0.73-0.3
		c0.19-0.19,0.3-0.45,0.3-0.73V53.2c0-0.57-0.46-1.03-1.03-1.03s-1.03,0.46-1.03,1.03v9.25h-14.4V60.4h11.31
		c0.57,0,1.03-0.46,1.03-1.03s-0.46-1.03-1.03-1.03H44.95v-7.2c0-0.27-0.11-0.53-0.3-0.73c-0.19-0.19-0.45-0.3-0.73-0.3h-6.17V46
		h21.59v3.08c0,0.57,0.46,1.03,1.03,1.03s1.03-0.46,1.03-1.03v-4.11c0-0.27-0.11-0.53-0.3-0.73c-0.19-0.19-0.45-0.3-0.73-0.3H29.52
		c-0.57,0-1.03,0.46-1.03,1.03v18.51c0,0.27,0.11,0.53,0.3,0.73s0.45,0.3,0.73,0.3h21.82l1.54,6.17h-3.83v-1.03
		c0-0.82-0.32-1.6-0.9-2.18c-0.58-0.58-1.36-0.9-2.18-0.9h-14.4c-0.82,0-1.6,0.32-2.18,0.9s-0.9,1.36-0.9,2.18v1.03h-2.06v-1.03
		c0-0.82-0.32-1.6-0.9-2.18s-1.36-0.9-2.18-0.9H21.3v-2.61c0.54,0,1.07-0.14,1.54-0.41c0.47-0.27,0.86-0.66,1.13-1.13l2.06-3.56
		c0.55-0.96,0.55-2.13,0-3.09c-0.55-0.95-1.57-1.54-2.67-1.54c-1.1,0-2.12,0.59-2.67,1.54l-2.06,3.56
		c-0.35,0.61-0.49,1.33-0.37,2.03c0.11,0.7,0.46,1.34,0.99,1.81v3.39c-0.57,0-1.03,0.46-1.03,1.03c0,0.57,0.46,1.03,1.03,1.03h4.11
		c0.27,0,0.53,0.11,0.73,0.3s0.3,0.45,0.3,0.73v1.03h-7.2c-0.57,0-1.03,0.46-1.03,1.03v4.11c0,0.57,0.46,1.03,1.03,1.03
		s1.03-0.46,1.03-1.03v-3.08H75.8v3.08c0,0.57,0.46,1.03,1.03,1.03s1.03-0.46,1.03-1.03v-4.11c0-0.27-0.11-0.53-0.3-0.73
		C77.36,70.79,77.1,70.68,76.82,70.68L76.82,70.68z M35.69,46v4.11h-5.14V46H35.69z M30.55,52.17h12.34v10.28h-2.06v-1.03
		c0-1.06-0.55-2.04-1.44-2.6c0.27-0.46,0.41-0.98,0.41-1.51c0-1.1-0.59-2.12-1.54-2.67c-0.95-0.55-2.13-0.55-3.08,0
		c-0.95,0.55-1.54,1.57-1.54,2.67c0,0.53,0.14,1.05,0.41,1.51c-0.89,0.56-1.44,1.54-1.44,2.6v1.03h-2.06V52.17z M35.69,57.31
		c0-0.42,0.25-0.79,0.63-0.95c0.38-0.16,0.83-0.07,1.12,0.22c0.29,0.29,0.38,0.74,0.22,1.12c-0.16,0.38-0.53,0.63-0.95,0.63
		C36.15,58.34,35.69,57.88,35.69,57.31z M34.67,62.45v-1.03c0-0.57,0.46-1.03,1.03-1.03h2.06c0.27,0,0.53,0.11,0.73,0.3
		c0.19,0.19,0.3,0.45,0.3,0.73v1.03H34.67z M20.78,61.76c-0.49-0.28-0.66-0.91-0.38-1.4l0.51-0.89l1.78,1.03l-0.51,0.89h0
		C21.9,61.88,21.28,62.05,20.78,61.76L20.78,61.76z M23.09,56.31c0.09-0.02,0.18-0.03,0.27-0.03c0.37,0,0.71,0.2,0.89,0.52
		c0.18,0.32,0.18,0.71,0,1.03l-0.51,0.89l-1.78-1.03l0.51-0.89C22.6,56.56,22.83,56.39,23.09,56.31L23.09,56.31z M70.66,66.42
		l2.36,4.26h-2.36V66.42z M69.63,51.14h4.11v2.06h-4.11V51.14z M65.51,55.25h8.23v6.17h-8.23V55.25z M68.6,66.42v4.26h-2.36
		L68.6,66.42z M30.55,70.68v-1.03c0-0.57,0.46-1.03,1.03-1.03h14.4c0.27,0,0.53,0.11,0.73,0.3c0.19,0.19,0.3,0.45,0.3,0.73v1.03
		H30.55z M56.26,70.68v-1.03c0-0.57,0.46-1.03,1.03-1.03s1.03,0.46,1.03,1.03v1.03H56.26z"/>
	<path d="M70.65,58.34c0,0.57-0.46,1.03-1.03,1.03s-1.03-0.46-1.03-1.03s0.46-1.03,1.03-1.03S70.65,57.77,70.65,58.34"/>
	<path d="M49.52,48.16c-0.32-0.16-0.7-0.14-1,0.05c-0.3,0.19-0.49,0.52-0.49,0.88v6.17c0,0.36,0.18,0.69,0.49,0.88
		c0.3,0.19,0.68,0.21,1,0.05l6.17-3.08c0.35-0.17,0.57-0.53,0.57-0.92c0-0.39-0.22-0.75-0.57-0.92L49.52,48.16z M50.09,53.59v-2.84
		l2.84,1.42L50.09,53.59z"/>
	<path d="M40.83,33.66h7.2c0.57,0,1.03-0.46,1.03-1.03s-0.46-1.03-1.03-1.03h-6.17v-1.03c0-1.84,0.98-3.53,2.57-4.45
		c1.59-0.92,3.55-0.92,5.14,0c1.59,0.92,2.57,2.62,2.57,4.45v1.03c-0.57,0-1.03,0.46-1.03,1.03s0.46,1.03,1.03,1.03h1.03
		c0.27,0,0.53-0.11,0.73-0.3c0.19-0.19,0.3-0.45,0.3-0.73v-2.06c0-1.73-0.63-3.4-1.76-4.71c-1.13-1.31-2.7-2.16-4.41-2.41v-7.28
		c0-0.57-0.46-1.03-1.03-1.03s-1.03,0.46-1.03,1.03v7.28c-1.71,0.25-3.28,1.1-4.41,2.41c-1.13,1.31-1.76,2.98-1.76,4.71v2.06
		c0,0.27,0.11,0.53,0.3,0.73C40.3,33.55,40.56,33.66,40.83,33.66z"/>
	<path d="M45.98,36.75v3.08c0,0.57,0.46,1.03,1.03,1.03s1.03-0.46,1.03-1.03v-3.08c0-0.57-0.46-1.03-1.03-1.03
		S45.98,36.18,45.98,36.75z"/>
	<path d="M52.71,35.83c-0.24,0.12-0.43,0.34-0.52,0.59c-0.09,0.26-0.07,0.54,0.06,0.79l1.03,2.06c0.25,0.51,0.87,0.71,1.38,0.46
		c0.51-0.25,0.71-0.87,0.46-1.38l-1.03-2.06c-0.12-0.24-0.34-0.43-0.59-0.52C53.24,35.68,52.96,35.7,52.71,35.83L52.71,35.83z"/>
	<path d="M39.35,39.73c0.24,0.12,0.53,0.14,0.79,0.06c0.26-0.09,0.47-0.27,0.59-0.52l1.03-2.06c0.25-0.51,0.05-1.13-0.46-1.38
		c-0.51-0.25-1.13-0.05-1.38,0.46l-1.03,2.06c-0.12,0.24-0.14,0.53-0.06,0.79C38.92,39.39,39.1,39.61,39.35,39.73L39.35,39.73z"/>
</g>
</svg>
