<?xml version="1.0" encoding="utf-8"?>
<!-- Generator: Adobe Illustrator 23.0.1, SVG Export Plug-In . SVG Version: 6.00 Build 0)  -->
<svg version="1.1" id="Layer_1" xmlns="http://www.w3.org/2000/svg" xmlns:xlink="http://www.w3.org/1999/xlink" x="0px" y="0px"
	 viewBox="0 0 100 100" style="enable-background:new 0 0 100 100;" xml:space="preserve">
<g>
	<path d="M79.61,65.09c-4.35,0-7.91,3.38-8.21,7.65h-3.37l-4.74-2.86c-0.18-0.11-0.41-0.11-0.59-0.01c-0.18,0.1-0.3,0.3-0.3,0.51
		v2.36h-3.33c-0.3-4.27-3.87-7.65-8.22-7.65s-7.91,3.38-8.22,7.65h-3.37l-4.73-2.86c-0.18-0.11-0.41-0.11-0.59-0.01
		c-0.18,0.1-0.3,0.3-0.3,0.51v2.36h-3.34c-0.3-4.27-3.87-7.65-8.21-7.65c-4.55,0-8.25,3.7-8.25,8.24c0,4.55,3.7,8.25,8.25,8.25
		c4.35,0,7.91-3.39,8.21-7.66h3.34v2.26c0,0.21,0.11,0.4,0.29,0.51c0.09,0.05,0.19,0.08,0.29,0.08c0.1,0,0.2-0.03,0.3-0.08
		l4.74-2.76h3.37c0.3,4.27,3.87,7.66,8.22,7.66c4.35,0,7.91-3.39,8.22-7.66h3.33v2.26c0,0.21,0.11,0.4,0.29,0.51
		c0.09,0.05,0.19,0.08,0.29,0.08c0.1,0,0.2-0.03,0.3-0.08l4.74-2.76h3.37c0.3,4.27,3.87,7.66,8.21,7.66c4.55,0,8.25-3.7,8.25-8.25
		C87.85,68.78,84.15,65.09,79.61,65.09L79.61,65.09z M22.1,80.4c-3.9,0-7.07-3.17-7.07-7.07c0-3.9,3.17-7.07,7.07-7.07
		c3.9,0,7.07,3.17,7.07,7.07C29.16,77.23,25.99,80.4,22.1,80.4z M50.85,80.4c-3.9,0-7.07-3.17-7.07-7.07c0-3.9,3.17-7.07,7.07-7.07
		s7.07,3.17,7.07,7.07C57.92,77.23,54.75,80.4,50.85,80.4z"/>
	<path d="M50.85,68.31c-2.77,0-5.02,2.25-5.02,5.02c0,2.77,2.25,5.03,5.02,5.03c2.77,0,5.02-2.26,5.02-5.03
		C55.87,70.56,53.62,68.31,50.85,68.31L50.85,68.31z"/>
	<path d="M25.13,69.75l-4.51,4.94l-1.51-2.45c-0.17-0.28-0.53-0.36-0.81-0.19c-0.28,0.17-0.36,0.53-0.19,0.81l1.91,3.12
		c0.1,0.16,0.26,0.26,0.45,0.28c0.02,0,0.04,0,0.05,0c0.16,0,0.32-0.07,0.43-0.19L26,70.54c0.22-0.24,0.2-0.61-0.04-0.83
		C25.72,69.49,25.35,69.51,25.13,69.75L25.13,69.75z"/>
	<path d="M54.06,37.77c0.27,1.23,1.37,2.16,2.68,2.16s2.41-0.93,2.68-2.16h2.18c0.75,0,1.45-0.38,1.85-1.02
		c0.4-0.64,0.45-1.42,0.12-2.1l-1.72-3.6c-0.59-1.23-1.86-2.02-3.22-2.02h-1.3v-4c0-0.32-0.26-0.59-0.59-0.59H40.29
		c-0.32,0-0.59,0.26-0.59,0.59v4h-2.33c-0.32,0-0.59,0.26-0.59,0.59s0.26,0.59,0.59,0.59h2.33v1.53h-2.33
		c-0.32,0-0.59,0.26-0.59,0.59c0,0.32,0.26,0.59,0.59,0.59h2.33v4.28c0,0.32,0.26,0.59,0.59,0.59h2c0.27,1.23,1.37,2.16,2.68,2.16
		s2.41-0.93,2.68-2.16L54.06,37.77z M40.88,32.91h4.1c0.32,0,0.59-0.26,0.59-0.59s-0.26-0.59-0.59-0.59h-4.1V30.2l4.1,0
		c0.32,0,0.59-0.26,0.59-0.59s-0.26-0.59-0.59-0.59h-4.1v-3.41h15.28v8.88c-1.04,0.23-1.87,1.05-2.09,2.09h-6.4
		c-0.27-1.23-1.37-2.16-2.68-2.16s-2.41,0.93-2.68,2.16h-1.42L40.88,32.91z"/>
	<path d="M38.57,23.07h11.24c0.32,0,0.59-0.26,0.59-0.59s-0.26-0.59-0.59-0.59H38.57c-0.32,0-0.59,0.26-0.59,0.59
		S38.25,23.07,38.57,23.07L38.57,23.07z"/>
	<path d="M44.98,20.7h4.83c0.32,0,0.59-0.26,0.59-0.59s-0.26-0.59-0.59-0.59l-4.83,0c-0.32,0-0.59,0.26-0.59,0.59
		C44.39,20.44,44.65,20.7,44.98,20.7z"/>
	<path d="M50.48,62.8c0.11,0.09,0.24,0.14,0.38,0.14c0.14,0,0.27-0.05,0.38-0.14c0.73-0.63,17.82-15.64,17.82-32.16
		c0-10.04-8.17-18.21-18.21-18.21s-18.21,8.17-18.21,18.21C32.64,47.74,49.75,62.19,50.48,62.8L50.48,62.8z M50.85,13.6
		c9.39,0,17.03,7.64,17.03,17.03c0,14.65-14.49,28.6-17.04,30.93C48.29,59.3,33.82,45.8,33.82,30.63
		C33.82,21.24,41.46,13.6,50.85,13.6L50.85,13.6z"/>
</g>
</svg>
