<?xml version="1.0" encoding="utf-8"?>
<!-- Generator: Adobe Illustrator 23.0.1, SVG Export Plug-In . SVG Version: 6.00 Build 0)  -->
<svg version="1.1" id="Layer_1" xmlns="http://www.w3.org/2000/svg" xmlns:xlink="http://www.w3.org/1999/xlink" x="0px" y="0px"
	 viewBox="0 0 100 100" style="enable-background:new 0 0 100 100;" xml:space="preserve">
<style type="text/css">
	.st0{fill:#FFFFFF;}
</style>
<path class="st0" d="M46.93,27.07c-6.98,0-12.62,5.89-12.62,13.05c0,2.59,0.78,4.64,1.99,6.59l9.52,15.41l0,0
	c0.24,0.39,0.66,0.63,1.12,0.63c0.46,0,0.88-0.24,1.12-0.63l9.52-15.41c1.21-1.95,1.98-4.01,1.98-6.59
	C59.55,32.95,53.91,27.07,46.93,27.07L46.93,27.07z M46.93,29.68c5.52,0,10.01,4.63,10.01,10.44c0,2.09-0.55,3.51-1.6,5.22
	l-8.4,13.6l-8.4-13.6c-1.06-1.71-1.6-3.13-1.6-5.22C36.92,34.31,41.42,29.68,46.93,29.68z M46.93,33.16c-3.59,0-6.53,2.94-6.53,6.53
	c0,3.59,2.94,6.53,6.53,6.53s6.53-2.94,6.53-6.53C53.46,36.1,50.52,33.16,46.93,33.16z M46.93,35.77c2.18,0,3.92,1.74,3.92,3.92
	s-1.74,3.92-3.92,3.92c-2.18,0-3.92-1.74-3.92-3.92C43.01,37.51,44.75,35.77,46.93,35.77L46.93,35.77z"/>
</svg>
