<?xml version="1.0" encoding="utf-8"?>
<!-- Generator: Adobe Illustrator 23.0.1, SVG Export Plug-In . SVG Version: 6.00 Build 0)  -->
<svg version="1.1" id="Layer_1" xmlns="http://www.w3.org/2000/svg" xmlns:xlink="http://www.w3.org/1999/xlink" x="0px" y="0px"
	 viewBox="0 0 100 100" style="enable-background:new 0 0 100 100;" xml:space="preserve">
<style type="text/css">
	.st0{fill-rule:evenodd;clip-rule:evenodd;fill:#999999;}
</style>
<g>
	<path class="st0" d="M40.16,67.03c1.19,0.65,2.13,1.74,2.57,3.03h19.99c0.36-2.12,2.15-3.69,4.44-3.69s4.36,1.57,5.09,3.69h1.38
		c0.68,0,1.18-0.55,1.12-1.23c-0.19-2.15-0.22-2.46-0.22-2.46c-0.06-0.68,0.44-1.23,1.12-1.23c0.68,0,1.28,0.55,1.34,1.23
		c0,0,0.03,0.31,0.22,2.46c0.18,2.04-1.33,3.69-3.37,3.69h-1.38c-0.36,2.12-2.15,3.69-4.44,3.69s-4.36-1.57-5.09-3.69H42.95
		c-0.36,2.12-2.15,3.69-4.44,3.69c-2.29,0-4.36-1.57-5.09-3.69h-3.85c-2.04,0-3.84-1.65-4.01-3.69c-0.27-3.07-0.74-8.38-1.08-12.3
		c-0.14-1.63,0.37-3.2,1.42-4.35c1.05-1.15,2.56-1.8,4.19-1.8h6.15l-0.32-3.69C35.74,44.65,37.25,43,39.29,43h29.52
		c0.68,0,1.28,0.55,1.34,1.23c0.06,0.68-0.45,1.23-1.12,1.23H39.5c-0.68,0-1.18,0.55-1.12,1.23L40.16,67.03L40.16,67.03z
		 M67.38,68.83c1.36,0,2.56,1.1,2.67,2.46c0.12,1.36-0.89,2.46-2.24,2.46s-2.56-1.1-2.68-2.46C65.02,69.93,66.02,68.83,67.38,68.83
		L67.38,68.83z M40.53,71.29c0.12,1.36-0.89,2.46-2.24,2.46s-2.56-1.1-2.68-2.46c-0.12-1.36,0.89-2.46,2.25-2.46
		C39.22,68.83,40.42,69.93,40.53,71.29z M37.64,66.37l-1.18-13.53h-6.15c-0.98,0-1.88,0.39-2.52,1.08
		c-0.63,0.69-0.94,1.63-0.85,2.61l0.11,1.23h3.69c0.68,0,1.28,0.55,1.34,1.23c0.06,0.68-0.45,1.23-1.12,1.23h-3.69l0.22,2.46h1.23
		c0.68,0,1.28,0.55,1.34,1.23c0.06,0.68-0.45,1.23-1.12,1.23h-1.23l0.32,3.69c0.06,0.68,0.66,1.23,1.34,1.23h3.85
		C33.56,67.94,35.35,66.37,37.64,66.37L37.64,66.37z M55.34,57.76c-0.68,0-1.18,0.55-1.12,1.23c0.06,0.68,0.66,1.23,1.34,1.23h19.68
		c0.68,0,1.18-0.55,1.12-1.23c-0.06-0.68-0.66-1.23-1.34-1.23H55.34L55.34,57.76z M72.13,52.84c0.68,0,1.18-0.55,1.12-1.23
		c-0.06-0.68-0.66-1.23-1.34-1.23H54.69c-0.68,0-1.18,0.55-1.12,1.23c0.06,0.68,0.66,1.23,1.34,1.23H72.13L72.13,52.84z"/>
</g>
</svg>
