<?xml version="1.0" encoding="utf-8"?>
<!-- Generator: Adobe Illustrator 23.0.1, SVG Export Plug-In . SVG Version: 6.00 Build 0)  -->
<svg version="1.1" id="Layer_1" xmlns="http://www.w3.org/2000/svg" xmlns:xlink="http://www.w3.org/1999/xlink" x="0px" y="0px"
	 viewBox="0 0 100 100" style="enable-background:new 0 0 100 100;" xml:space="preserve">
<style type="text/css">
	.st0{fill:#999999;}
</style>
<g>
	<path class="st0" d="M38.85,67.19c0.63,0,1.21-0.58,1.21-1.21v-9.81c0-0.69-0.53-1.21-1.21-1.21l-9.81,0
		c-0.69,0-1.21,0.53-1.21,1.21v9.81c0,0.69,0.53,1.21,1.21,1.21L38.85,67.19L38.85,67.19z"/>
	<path class="st0" d="M26.67,68.98c-0.69,0-1.21,0.53-1.32,1.16c0,0.69,0.53,1.21,1.21,1.21H42.6c0.53,0,1.05-0.37,1.16-0.9
		l4.27-17.72h2.9c-0.05-0.16-0.11-0.32-0.16-0.47c-0.16-0.63-0.16-1.27,0.05-1.9h-3.69c-0.53,0-1.05,0.37-1.16,0.9l-4.22,17.72
		L26.67,68.98L26.67,68.98z"/>
	<path class="st0" d="M37.96,75.31c0-1.49,1.2-2.69,2.69-2.69s2.69,1.2,2.69,2.69c0,1.49-1.2,2.69-2.69,2.69S37.96,76.8,37.96,75.31
		"/>
	<path class="st0" d="M26.67,75.31c0-1.49,1.2-2.69,2.69-2.69c1.49,0,2.69,1.2,2.69,2.69c0,1.49-1.2,2.69-2.69,2.69
		C27.87,78,26.67,76.8,26.67,75.31"/>
	<path class="st0" d="M53.52,49.09c-1.21,0.37-1.95,1.64-1.64,2.8c0.26,1.05,1.21,1.74,2.22,1.74c0.16,0,0.37,0,0.58-0.05l4.69-1.27
		c0.53-0.11,1-0.47,1.32-0.95l1.16-1.74c0.53,2.32,1.16,5.12,1.53,6.65l-4.54,6.49c-0.21,0.37-0.37,0.79-0.42,1.21l-1.11,11.29
		c-0.16,1.37,0.84,2.58,2.22,2.74h0.32c1.21,0,2.32-0.95,2.48-2.22l1.42-10.71l2.43-3.59l-0.05,2.58c0,0.37,0.05,0.69,0.16,1
		l4.33,11.29c0.42,1,1.37,1.64,2.37,1.64c0.32,0,0.63-0.05,0.9-0.16c1.32-0.47,2-1.9,1.53-3.22l-3.8-10.81c0,0,0.21-5.17,0.26-6.12
		c0.05-0.95,0-1.9-0.16-2.64c-0.16-0.74-2.27-11.02-2.48-11.87c-0.48-1.85-2.37-3.11-4.48-3.01c-2.11,0.11-3.11,1.42-3.53,2.06
		c-0.42,0.63-3.85,5.86-3.85,5.86L53.52,49.09L53.52,49.09z"/>
	<path class="st0" d="M59,34.64c0-2.56,2.08-4.64,4.64-4.64c2.56,0,4.64,2.08,4.64,4.64c0,2.56-2.08,4.64-4.64,4.64
		C61.08,39.28,59,37.21,59,34.64"/>
</g>
</svg>
