<?xml version="1.0" encoding="utf-8"?>
<!-- Generator: Adobe Illustrator 23.0.1, SVG Export Plug-In . SVG Version: 6.00 Build 0)  -->
<svg version="1.1" id="Layer_1" xmlns="http://www.w3.org/2000/svg" xmlns:xlink="http://www.w3.org/1999/xlink" x="0px" y="0px"
	 viewBox="0 0 100 100" style="enable-background:new 0 0 100 100;" xml:space="preserve">
<style type="text/css">
	.st0{fill:url(#SVGID_1_);}
	.st1{fill:url(#SVGID_2_);}
	.st2{fill:url(#SVGID_3_);}
	.st3{fill:url(#SVGID_4_);}
	.st4{fill:url(#SVGID_5_);}
	.st5{fill:url(#SVGID_6_);}
	.st6{fill:url(#SVGID_7_);}
	.st7{fill:url(#SVGID_8_);}
	.st8{fill:url(#SVGID_9_);}
	.st9{fill:url(#SVGID_10_);}
	.st10{fill:url(#SVGID_11_);}
</style>
<g>
	<linearGradient id="SVGID_1_" gradientUnits="userSpaceOnUse" x1="74.4664" y1="50.5556" x2="77.2998" y2="50.5556">
		<stop  offset="0" style="stop-color:#FFFFFF"/>
		<stop  offset="1" style="stop-color:#FFFFFF"/>
	</linearGradient>
	<path class="st0" d="M77.3,51.5h-2.83v-1.89h2.83V51.5z"/>
	<linearGradient id="SVGID_2_" gradientUnits="userSpaceOnUse" x1="74.4664" y1="53.3889" x2="78.2442" y2="53.3889">
		<stop  offset="0" style="stop-color:#FFFFFF"/>
		<stop  offset="1" style="stop-color:#FFFFFF"/>
	</linearGradient>
	<path class="st1" d="M78.24,54.33h-3.78v-1.89h3.78V54.33z"/>
	<linearGradient id="SVGID_3_" gradientUnits="userSpaceOnUse" x1="74.4664" y1="56.2222" x2="79.1887" y2="56.2222">
		<stop  offset="0" style="stop-color:#FFFFFF"/>
		<stop  offset="1" style="stop-color:#FFFFFF"/>
	</linearGradient>
	<path class="st2" d="M79.19,57.17h-4.72v-1.89h4.72V57.17z"/>
	<linearGradient id="SVGID_4_" gradientUnits="userSpaceOnUse" x1="22.5215" y1="57.1667" x2="72.577" y2="57.1667">
		<stop  offset="0" style="stop-color:#FFFFFF"/>
		<stop  offset="1" style="stop-color:#FFFFFF"/>
	</linearGradient>
	<path class="st3" d="M22.52,57.73V68.5c0,1.61,1.23,2.83,2.83,2.83h1.89v-1.89h-1.89c-0.57,0-0.94-0.38-0.94-0.94v-6.61h42.5V60
		H38.58V45.83c0-0.57,0.38-0.94,0.94-0.94h30.22c0.57,0,0.94,0.38,0.94,0.94V68.5c0,0.57-0.38,0.94-0.94,0.94h-1.89v1.89h1.89
		c1.61,0,2.83-1.23,2.83-2.83V45.83c0-1.61-1.23-2.83-2.83-2.83H39.52c-1.61,0-2.83,1.23-2.83,2.83v3.78H29.6L22.52,57.73z
		 M24.41,60v-1.51l6.14-6.99h6.14V60H24.41z"/>
	<linearGradient id="SVGID_5_" gradientUnits="userSpaceOnUse" x1="42.3553" y1="70.3889" x2="52.7442" y2="70.3889">
		<stop  offset="0" style="stop-color:#FFFFFF"/>
		<stop  offset="1" style="stop-color:#FFFFFF"/>
	</linearGradient>
	<path class="st4" d="M52.74,71.33H42.36v-1.89h10.39V71.33z"/>
	<linearGradient id="SVGID_6_" gradientUnits="userSpaceOnUse" x1="53.6881" y1="70.8611" x2="65.9659" y2="70.8611">
		<stop  offset="0" style="stop-color:#FFFFFF"/>
		<stop  offset="1" style="stop-color:#FFFFFF"/>
	</linearGradient>
	<path class="st5" d="M53.69,70.86c0-3.4,2.74-6.14,6.14-6.14s6.14,2.74,6.14,6.14c0,3.4-2.74,6.14-6.14,6.14
		S53.69,74.26,53.69,70.86z M55.58,70.86c0,2.36,1.89,4.25,4.25,4.25s4.25-1.89,4.25-4.25c0-2.36-1.89-4.25-4.25-4.25
		S55.58,68.5,55.58,70.86z"/>
	<linearGradient id="SVGID_7_" gradientUnits="userSpaceOnUse" x1="57.7512" y1="70.861" x2="61.8962" y2="70.861">
		<stop  offset="0" style="stop-color:#FFFFFF"/>
		<stop  offset="1" style="stop-color:#FFFFFF"/>
	</linearGradient>
	<path class="st6" d="M60.56,72.93l-2.81-2.8l1.33-1.34l2.81,2.8L60.56,72.93z"/>
	<linearGradient id="SVGID_8_" gradientUnits="userSpaceOnUse" x1="29.1326" y1="70.8611" x2="41.4104" y2="70.8611">
		<stop  offset="0" style="stop-color:#FFFFFF"/>
		<stop  offset="1" style="stop-color:#FFFFFF"/>
	</linearGradient>
	<path class="st7" d="M29.13,70.86c0-3.4,2.74-6.14,6.14-6.14c3.4,0,6.14,2.74,6.14,6.14c0,3.4-2.74,6.14-6.14,6.14
		C31.87,77,29.13,74.26,29.13,70.86z M31.02,70.86c0,2.36,1.89,4.25,4.25,4.25c2.36,0,4.25-1.89,4.25-4.25
		c0-2.36-1.89-4.25-4.25-4.25C32.91,66.61,31.02,68.5,31.02,70.86z"/>
	<linearGradient id="SVGID_9_" gradientUnits="userSpaceOnUse" x1="33.2024" y1="70.8612" x2="37.3428" y2="70.8612">
		<stop  offset="0" style="stop-color:#FFFFFF"/>
		<stop  offset="1" style="stop-color:#FFFFFF"/>
	</linearGradient>
	<path class="st8" d="M36.01,72.93l-2.8-2.8l1.34-1.34l2.8,2.8L36.01,72.93z"/>
	<linearGradient id="SVGID_10_" gradientUnits="userSpaceOnUse" x1="51.422" y1="50.8861" x2="60.2998" y2="50.8861">
		<stop  offset="0" style="stop-color:#FFFFFF"/>
		<stop  offset="1" style="stop-color:#FFFFFF"/>
	</linearGradient>
	<path class="st9" d="M53.97,54.71l-2.55-2.55l1.32-1.32l1.23,1.23l5.01-5.01l1.32,1.32L53.97,54.71z"/>
	<linearGradient id="SVGID_11_" gradientUnits="userSpaceOnUse" x1="48.3053" y1="52.4444" x2="59.6387" y2="52.4444">
		<stop  offset="0" style="stop-color:#FFFFFF"/>
		<stop  offset="1" style="stop-color:#FFFFFF"/>
	</linearGradient>
	<path class="st10" d="M51.33,58.11c-1.7,0-3.02-1.32-3.02-3.02V49.8c0-0.85,0.28-1.61,0.85-2.17c0.57-0.57,1.32-0.85,2.17-0.94
		h4.53v1.89h-4.53c-0.28,0-0.57,0.09-0.85,0.38c-0.19,0.19-0.38,0.47-0.38,0.85v5.29c0,0.66,0.47,1.13,1.13,1.13h5.29
		c0.28,0,0.57-0.09,0.85-0.38c0.19-0.19,0.38-0.47,0.38-0.85V51.5h1.89v3.59c0,0.85-0.28,1.61-0.85,2.17
		c-0.57,0.57-1.32,0.85-2.17,0.94L51.33,58.11z"/>
</g>
</svg>
