<?xml version="1.0" encoding="utf-8"?>
<!-- Generator: Adobe Illustrator 23.0.1, SVG Export Plug-In . SVG Version: 6.00 Build 0)  -->
<svg version="1.1" id="Layer_1" xmlns="http://www.w3.org/2000/svg" xmlns:xlink="http://www.w3.org/1999/xlink" x="0px" y="0px"
	 viewBox="0 0 100 100" style="enable-background:new 0 0 100 100;" xml:space="preserve">
<g>
	<path d="M61.1,70.5c0,0.79-0.64,1.43-1.43,1.43H42.46c-0.79,0-1.43-0.64-1.43-1.43c0-5.54,4.49-10.03,10.03-10.03
		S61.1,64.96,61.1,70.5L61.1,70.5z M51.07,62.19c-4.5,0-8.16,3.57-8.31,8.03h16.62C59.23,65.76,55.57,62.19,51.07,62.19L51.07,62.19
		z M51.07,59.32c-3.32,0-6.02-2.7-6.02-6.02c0-3.32,2.7-6.02,6.02-6.02s6.02,2.7,6.02,6.02C57.09,56.63,54.39,59.32,51.07,59.32z
		 M51.07,57.6c2.37,0,4.3-1.93,4.3-4.3c0-2.37-1.93-4.3-4.3-4.3c-2.37,0-4.3,1.93-4.3,4.3C46.77,55.68,48.69,57.6,51.07,57.6z"/>
</g>
</svg>
