<?xml version="1.0" encoding="utf-8"?>
<!-- Generator: Adobe Illustrator 23.0.1, SVG Export Plug-In . SVG Version: 6.00 Build 0)  -->
<svg version="1.1" id="Layer_1" xmlns="http://www.w3.org/2000/svg" xmlns:xlink="http://www.w3.org/1999/xlink" x="0px" y="0px"
	 viewBox="0 0 100 100" style="enable-background:new 0 0 100 100;" xml:space="preserve">
<style type="text/css">
	.st0{fill:#E0A827;}
</style>
<g>
	<g>
		<path class="st0" d="M63.24,41.5C63.24,41.5,63.24,41.49,63.24,41.5c0-0.02,0-0.04,0-0.05c0,0,0-0.01,0-0.01
			c0-0.01,0-0.02-0.01-0.03c0,0,0-0.01,0-0.01c0-0.01-0.01-0.02-0.01-0.04c0,0,0,0,0-0.01l-1.19-3.05
			c-0.12-0.31-0.41-0.51-0.74-0.51h-2.17c-0.24,0-0.43,0.19-0.43,0.43c0,0.24,0.19,0.43,0.43,0.43h2.13l0.95,2.43h-8.98l-0.56-2.43
			h3.31c0.24,0,0.43-0.19,0.43-0.43c0-0.24-0.19-0.43-0.43-0.43h-3.85h-4.32h-9.17c-0.33,0-0.62,0.2-0.74,0.51l-1.19,3.05
			c0,0,0,0,0,0.01c0,0.01-0.01,0.02-0.01,0.04c0,0,0,0.01,0,0.01c0,0.01,0,0.02-0.01,0.03c0,0,0,0.01,0,0.01c0,0.01,0,0.03,0,0.04
			c0,0,0,0.01,0,0.01c0,0,0,0,0,0v6.3c0,0.24,0.19,0.43,0.43,0.43c0.24,0,0.43-0.19,0.43-0.43v-5.87h9.09v6.52
			c0,0.25,0.15,0.49,0.38,0.59c0.09,0.04,0.18,0.06,0.27,0.06c0.16,0,0.31-0.06,0.43-0.16l2.27-2.01l2.27,2.01
			c0.19,0.17,0.46,0.21,0.7,0.11c0.23-0.1,0.38-0.34,0.38-0.59v-6.52h9.09v19.23c0,0.31-0.25,0.56-0.56,0.56h-7.86
			c0,0,0-0.01,0-0.01c0-0.04,0-0.08-0.01-0.11c0.74,0.2,1.53-0.18,1.82-0.91c0.16-0.38,0.15-0.8-0.01-1.18
			c-0.02-0.04-0.03-0.07-0.05-0.1c0-0.01-0.01-0.01-0.01-0.02c-0.02-0.03-0.04-0.06-0.05-0.1c0-0.01-0.01-0.01-0.01-0.02
			c-0.02-0.03-0.04-0.06-0.06-0.09c0,0,0,0,0,0c-0.02-0.03-0.05-0.06-0.07-0.09c0-0.01-0.01-0.01-0.01-0.02
			c-0.02-0.03-0.05-0.05-0.08-0.08c-0.01,0-0.01-0.01-0.02-0.01c-0.03-0.03-0.06-0.05-0.08-0.07c0,0,0,0,0,0
			c-0.03-0.02-0.06-0.04-0.09-0.07c-0.01,0-0.01-0.01-0.02-0.01c-0.03-0.02-0.06-0.04-0.09-0.06c0,0-0.01,0-0.01,0
			c0.18-0.16,0.32-0.36,0.42-0.58c0.16-0.38,0.15-0.8-0.01-1.18c-0.14-0.33-0.39-0.6-0.7-0.77c-0.04-0.02-0.09-0.05-0.14-0.06
			l-6.67-2.72l3.11-0.96c0.74-0.23,1.15-1.02,0.93-1.76c-0.08-0.28-0.25-0.51-0.47-0.68c-0.32-0.25-0.76-0.37-1.18-0.28
			c0,0,0,0-0.01,0c-0.02,0.01-2.4,0.54-4.89,1.03c-0.11,0.02-0.22,0.04-0.32,0.06c-0.08,0.02-0.17,0.03-0.25,0.05
			c-0.02,0-0.05,0.01-0.07,0.01c-0.14,0.03-0.29,0.05-0.42,0.08c-0.05,0.01-0.11,0.02-0.16,0.03c-3.12,0.58-4,0.59-4.24,0.55l0,0
			c0,0-0.01,0-0.01,0c0,0,0,0-0.01,0c0,0,0,0,0,0c-0.02,0-0.03-0.01-0.04-0.01l-0.07-0.03l0.09-0.21c0.09-0.21,0.08-0.44,0-0.65
			c-0.02-0.05-0.05-0.1-0.08-0.15c-0.09-0.14-0.23-0.25-0.38-0.31l-2.3-0.94c-0.21-0.09-0.44-0.08-0.65,0
			c-0.21,0.09-0.37,0.25-0.46,0.46l-2.82,6.9c-0.18,0.44,0.03,0.93,0.47,1.11l2.3,0.94c0.11,0.04,0.21,0.06,0.32,0.06
			c0.34,0,0.66-0.2,0.79-0.53l0.02-0.05l0.53,0.22l0,0c0.51,0.21,0.98,0.5,1.38,0.87c0.07,0.07,0.15,0.14,0.21,0.21
			s0.14,0.14,0.2,0.22c0.03,0.04,0.06,0.08,0.1,0.12c0.59,0.74,1.36,1.31,2.24,1.67l0.6,0.24h-4.37c-0.31,0-0.56-0.25-0.56-0.56
			v-1.08c0-0.24-0.19-0.43-0.43-0.43s-0.43,0.19-0.43,0.43v1.08c0,0.78,0.63,1.42,1.42,1.42h6.48l5.52,2.25
			c0.19,0.08,0.39,0.11,0.58,0.11c0.61,0,1.19-0.36,1.43-0.96c0.1-0.25,0.13-0.5,0.11-0.75c0.29,0.04,0.59,0,0.85-0.11
			c0.27-0.12,0.5-0.31,0.66-0.55h8.12c0.78,0,1.42-0.63,1.42-1.42L63.24,41.5C63.24,41.5,63.24,41.5,63.24,41.5z M48.13,38.64h3.64
			l0.56,2.43h-4.76L48.13,38.64z M46.69,41.07h-8.98l0.95-2.43h8.59L46.69,41.07z M52.44,47.98L52.44,47.98l-2.06-1.83
			c-0.12-0.11-0.28-0.16-0.43-0.16c-0.15,0-0.31,0.05-0.43,0.16l-2.06,1.83v-6.05h4.98V47.98z M36.38,57.9l-2.3-0.94l2.81-6.9
			l2.3,0.94L36.38,57.9z M53.5,60.49l-0.49-0.2l0,0l0,0l0,0l-5.12-2.09c-0.22-0.09-0.47,0.02-0.56,0.24
			c-0.09,0.22,0.02,0.47,0.24,0.56l5.12,2.09c0.02,0.01,0.04,0.02,0.06,0.03c0.01,0,0.01,0.01,0.02,0.01
			c0.01,0.01,0.03,0.02,0.04,0.02c0.01,0,0.01,0.01,0.02,0.01c0.01,0.01,0.02,0.02,0.03,0.03c0.01,0.01,0.01,0.01,0.02,0.02
			c0.01,0.01,0.02,0.02,0.03,0.03c0.01,0.01,0.01,0.01,0.02,0.02c0.01,0.01,0.02,0.02,0.03,0.03c0.01,0.01,0.01,0.02,0.02,0.02
			c0.01,0.01,0.01,0.02,0.02,0.03c0.01,0.01,0.01,0.02,0.02,0.03c0.01,0.01,0.01,0.02,0.02,0.03c0.01,0.01,0.01,0.02,0.01,0.03
			c0,0.01,0.01,0.02,0.01,0.03c0,0.01,0.01,0.02,0.01,0.03c0,0.01,0.01,0.02,0.01,0.03c0,0.01,0.01,0.02,0.01,0.03
			c0,0.01,0.01,0.02,0.01,0.03c0,0.01,0,0.02,0.01,0.03c0,0.01,0,0.02,0.01,0.03s0,0.02,0,0.03c0,0.01,0,0.02,0,0.03
			c0,0.01,0,0.02,0,0.03c0,0.01,0,0.02,0,0.03c0,0.01,0,0.02,0,0.03c0,0.01,0,0.02,0,0.03c0,0.01,0,0.02-0.01,0.03
			c0,0.01,0,0.02-0.01,0.03c0,0.01-0.01,0.02-0.01,0.03c0,0.01-0.01,0.02-0.01,0.03c0,0.01-0.01,0.02-0.01,0.02c0,0,0,0,0,0.01
			c-0.07,0.15-0.19,0.28-0.35,0.35c-0.18,0.08-0.38,0.08-0.56,0.01l-0.91-0.37c0,0-0.01,0-0.01,0c0,0-0.01,0-0.01-0.01l-4.17-1.7
			c-0.22-0.09-0.47,0.02-0.56,0.24c-0.09,0.22,0.02,0.47,0.24,0.56l4.17,1.7c0,0,0.01,0,0.01,0c0,0,0.01,0,0.01,0.01
			c0.35,0.14,0.52,0.54,0.38,0.89c-0.14,0.35-0.54,0.52-0.89,0.38l-5.6-2.28c0,0,0,0,0,0l-2.62-1.07c-0.46-0.19-0.89-0.45-1.27-0.77
			c-0.23-0.19-0.44-0.41-0.62-0.64c-0.18-0.23-0.39-0.44-0.6-0.64c-0.48-0.43-1.03-0.78-1.63-1.03l0,0l-0.53-0.22l1.06-2.6l1-2.45
			l0.07,0.03c0.07,0.03,0.17,0.07,0.44,0.08c0.33,0.02,0.88-0.02,1.87-0.16c0.67-0.09,1.5-0.23,2.46-0.41
			c0.02,0,0.05-0.01,0.07-0.01c0.04-0.01,0.09-0.02,0.14-0.03c0.04-0.01,0.07-0.01,0.11-0.02c0.04-0.01,0.08-0.02,0.12-0.02
			c0.04-0.01,0.09-0.02,0.13-0.03c0.04-0.01,0.07-0.01,0.11-0.02c0.05-0.01,0.11-0.02,0.17-0.03c0.03-0.01,0.06-0.01,0.09-0.02
			c0.09-0.02,0.17-0.03,0.26-0.05c2.48-0.48,4.87-1.02,4.98-1.04c0.01,0,0.02,0,0.03-0.01c0.28-0.04,0.55,0.12,0.62,0.38
			c0.03,0.09,0.03,0.18,0.01,0.27c-0.04,0.19-0.18,0.36-0.38,0.42l-4.25,1.32c-0.17,0.05-0.29,0.21-0.3,0.39
			c-0.01,0.18,0.1,0.35,0.27,0.42l7.78,3.17c0.17,0.07,0.3,0.2,0.37,0.37c0.07,0.17,0.07,0.35,0,0.52c-0.07,0.17-0.2,0.3-0.37,0.37
			c-0.08,0.04-0.17,0.05-0.26,0.05c0,0,0,0,0,0c-0.02,0-0.04,0-0.06,0c-0.01,0-0.01,0-0.02,0c-0.02,0-0.03,0-0.05-0.01
			c-0.01,0-0.02,0-0.03-0.01c-0.01,0-0.02-0.01-0.04-0.01c-0.01,0-0.02-0.01-0.04-0.01c-0.01,0-0.02-0.01-0.03-0.01l-5.12-2.09
			c-0.22-0.09-0.47,0.02-0.56,0.24c-0.09,0.22,0.02,0.47,0.24,0.56l6.21,2.53c0.04,0.02,0.08,0.04,0.12,0.06
			c0.11,0.07,0.2,0.18,0.25,0.31c0.06,0.15,0.07,0.31,0.03,0.46c-0.01,0.02-0.01,0.04-0.02,0.06c-0.01,0.02-0.02,0.04-0.03,0.06
			c-0.03,0.05-0.06,0.09-0.09,0.13c-0.02,0.02-0.04,0.05-0.07,0.07c0,0-0.01,0.01-0.01,0.01c-0.16,0.13-0.37,0.18-0.57,0.14
			c-0.04-0.01-0.08-0.02-0.12-0.04L53.5,60.49z"/>
	</g>
</g>
</svg>
