<?xml version="1.0" encoding="utf-8"?>
<!-- Generator: Adobe Illustrator 23.0.1, SVG Export Plug-In . SVG Version: 6.00 Build 0)  -->
<svg version="1.1" id="Layer_1" xmlns="http://www.w3.org/2000/svg" xmlns:xlink="http://www.w3.org/1999/xlink" x="0px" y="0px"
	 viewBox="0 0 100 100" style="enable-background:new 0 0 100 100;" xml:space="preserve">
<style type="text/css">
	.st0{fill:#28333C;}
	.st1{fill:#E0A827;stroke:#FFFFFF;stroke-miterlimit:10;}
</style>
<g>
	<g>
		<g>
			<g>
				<rect x="26.09" y="60.45" class="st0" width="43.76" height="6.14"/>
			</g>
			<g>
				<path class="st0" d="M69.85,66.59c-9.29,0-10.81-18.1-11.05-23.65c0-6.11-4.86-10.97-10.84-10.97
					c-5.97,0-10.82,4.86-10.82,10.84c0.06,1.43,0.55,15.35-4.95,21.11c-1.67,1.75-3.78,2.67-6.11,2.67v-6.14
					c0.65,0,1.14-0.22,1.66-0.77c2.8-2.91,3.49-11.8,3.27-16.72c0-9.5,7.6-17.12,16.96-17.12c9.36,0,16.98,7.62,16.98,16.98
					c0.42,9.44,3.06,17.63,4.91,17.63V66.59z"/>
			</g>
		</g>
		<g>
			<rect x="44.24" y="71.83" class="st0" width="7.46" height="6.14"/>
		</g>
		<g>
			<rect x="44.9" y="22.45" class="st0" width="6.14" height="6.46"/>
		</g>
	</g>
	<g>
		<path class="st1" d="M67.89,34.93c0,5.11-4.14,9.25-9.25,9.25s-9.25-4.14-9.25-9.25c0-5.11,4.14-9.25,9.25-9.25
			S67.89,29.82,67.89,34.93z"/>
		<path class="st1" d="M64.34,35.09c-0.08,3.15-2.71,5.64-5.86,5.55c-3.15-0.09-5.64-2.71-5.56-5.86c0.09-3.15,2.71-5.64,5.86-5.55
			C61.94,29.31,64.43,31.93,64.34,35.09z"/>
	</g>
</g>
</svg>
