<?xml version="1.0" encoding="utf-8"?>
<!-- Generator: Adobe Illustrator 23.0.1, SVG Export Plug-In . SVG Version: 6.00 Build 0)  -->
<svg version="1.1" id="Layer_1" xmlns="http://www.w3.org/2000/svg" xmlns:xlink="http://www.w3.org/1999/xlink" x="0px" y="0px"
	 viewBox="0 0 700 700" style="enable-background:new 0 0 700 700;" xml:space="preserve">
<g>
	<path d="M363.1,205.6c0-48.1-39.4-87.5-87.5-87.5s-87.5,39.4-87.5,87.5s39.4,87.5,87.5,87.5S363.1,253.7,363.1,205.6z M275.6,266.9
		c-33.7,0-61.3-27.6-61.3-61.3s27.6-61.3,61.3-61.3s61.3,27.6,61.3,61.3S309.3,266.9,275.6,266.9z"/>
	<path d="M315.4,471.2c63.4-48.6,113.8-113.3,145.3-186.8c32.4-75.7,15.3-162.8-43.3-220.9c-78.3-78.3-205.6-78.3-283.9,0
		C74.8,121.6,58.2,208.7,91,284.8l0.4,0.9c30.2,70.4,78.3,133,138.7,180.7l5.3,4.4c11.4,9.2,25.8,14,40.7,14
		C290.1,484.3,304.1,479.5,315.4,471.2L315.4,471.2z M246.3,445.4c-56.9-44.6-101.9-103.7-130.8-170.2l-0.4-0.9
		c-28.4-66.1-14-141.8,36.8-192.5c34.1-34.1,78.8-51.2,123.8-51.2c44.6,0,89.3,17.1,123.4,51.2c50.8,50.8,65.6,126.4,37.6,192.1
		c-29.8,69.6-77,130.4-136.9,176.3c-7,5.3-15.3,7.9-23.6,7.9c-8.8,0-17.5-3.1-24.5-8.3L246.3,445.4z"/>
	<path d="M546.4,425.7c-20.6-6.6-52.1-16.6-52.1-26.7c0-11.4,20.6-16.6,47.3-22.8c29.3-6.6,62.1-13.6,62.1-42.9
		c0-20.6-14.4-31.9-25.8-41.1S560,277.8,560,267.8v-119c0-7.4-5.7-13.1-13.1-13.1s-13.1,5.7-13.1,13.1v119
		c0,23.2,16.2,35.9,27.6,45.1c10.1,7.9,16.2,13.1,16.2,20.6c0,7.9-24.1,13.6-41.6,17.1c-30.2,7-67.8,15.3-67.8,48.6
		c0,28.9,35.4,40.7,70,51.6c28.4,9.2,61.3,19.7,61.3,35.9c0,38.9-183.8,40.7-262.5,41.6h-63.4h-24.1c-7.4,0-13.1,5.7-13.1,13.1
		s5.7,13.1,13.1,13.1h24.1h37.2h26.7c218.3-2.2,288.3-18.8,288.3-67.8C625.6,451.1,583.6,437.5,546.4,425.7L546.4,425.7z"/>
	<path d="M546.9,74.4c7.4,0,13.1-5.7,13.1-13.1V16.6c0-7.4-5.7-13.1-13.1-13.1s-13.1,5.7-13.1,13.1v44.6
		C533.8,68.7,539.4,74.4,546.9,74.4z"/>
</g>
</svg>
