<?xml version="1.0" encoding="utf-8"?>
<!-- Generator: Adobe Illustrator 23.0.1, SVG Export Plug-In . SVG Version: 6.00 Build 0)  -->
<svg version="1.1" id="Layer_1" xmlns="http://www.w3.org/2000/svg" xmlns:xlink="http://www.w3.org/1999/xlink" x="0px" y="0px"
	 viewBox="0 0 700 700" style="enable-background:new 0 0 700 700;" xml:space="preserve">
<g>
	<path d="M592.3,453.1l-32.6-114.2l-10.1-37.1c-5.2-18.8-16.3-35.4-31.8-47.2c-15.5-11.8-34.5-18.3-54-18.3h-50.4l-10.8-5.4v-27.1
		c7.4-8.4,12.7-18.5,15.4-29.4c9.1-1.8,17.2-7.1,22.4-14.9c5.2-7.7,7.1-17.2,5.3-26.3c-1.8-9.1-7.2-17.2-15-22.3
		c1-5.6,0.3-11.3-1.9-16.5V61.3c0-11.6-4.6-22.7-12.8-30.9S396.6,17.5,385,17.5h-70c-11.6,0-22.7,4.6-30.9,12.8
		s-12.8,19.3-12.8,30.9v33.1c-2.2,5.2-2.8,10.9-1.9,16.5c-1.9,1.3-3.7,2.8-5.4,4.4c-6,6-9.6,14-10.2,22.5s2,16.9,7.2,23.6
		c5.2,6.7,12.7,11.3,21,13c2.7,10.9,8,21,15.4,29.4v27.1l-10.8,5.4h-50.4c-19.5,0-38.5,6.4-54,18.3c-15.5,11.8-26.7,28.4-31.8,47.3
		l-10.1,37.1l-32.6,114.2c-6,21.2-1.8,43.9,11.5,61.5c13.3,17.6,34,27.9,56,27.9h90.8c6.1,0,11.9-2.4,16.1-6.7s6.7-10.1,6.7-16.1
		v-41.9c0-6.1-2.4-11.9-6.7-16.1S272,455,265.9,455h-36.5l2.6-12.8c1.4-7.1-0.2-14.5-4.5-20.4V385H315v43.8c0,2.3,0.9,4.5,2.6,6.2
		s3.9,2.6,6.2,2.6h52.5c2.3,0,4.5-0.9,6.2-2.6s2.6-3.9,2.6-6.2V385h87.5v36.9c-4.3,5.8-5.9,13.2-4.5,20.3l2.6,12.8h-36.5
		c-6.1,0-11.9,2.4-16.1,6.7c-4.3,4.3-6.7,10.1-6.7,16.1v41.8v0c0,1.8,0.2,3.6,0.7,5.3H306.2v17.5h218.6c22,0,42.8-10.3,56-27.9
		C594.1,497,598.3,474.2,592.3,453.1L592.3,453.1z M420,129c0.9-0.7,1.8-1.5,2.6-2.4c4.4,3.7,6.7,9.2,6.1,14.9
		c-0.5,5.7-3.8,10.7-8.7,13.6L420,129z M280,155.1c-4.7-2.7-7.9-7.5-8.6-12.9c-0.7-5.4,1.1-10.8,5-14.6c0.3-0.3,0.7-0.7,1.1-1v0
		c0.8,0.8,1.7,1.6,2.5,2.4L280,155.1z M420,253.8h43.8c15.7,0,30.9,5.2,43.3,14.7c12.4,9.5,21.4,22.8,25.6,37.9l7.8,28.5L490,347.5
		V280c0-2.3-0.9-4.5-2.6-6.2s-3.9-2.6-6.2-2.6H420L420,253.8z M402.5,157.5c0,18.8-10,36.1-26.3,45.5c-16.2,9.4-36.3,9.4-52.5,0
		c-16.2-9.4-26.3-26.7-26.3-45.5v-21.7c0.5,0,0.9,0,1.4,0c1.2,0,2.3-0.1,3.5-0.2l20.5-2.3c12.2-1.4,42.1-1.4,54.3,0l20.5,2.3
		c1.6,0.2,3.2,0.2,4.9,0.1L402.5,157.5z M288.8,61.3c0-7,2.8-13.6,7.7-18.6C301.4,37.8,308,35,315,35h70c7,0,13.6,2.8,18.6,7.7
		c4.9,4.9,7.7,11.6,7.7,18.6v26.3h-17.5V61.3c0-2.3-0.9-4.5-2.6-6.2s-3.9-2.6-6.2-2.6h-70c-4.8,0-8.8,3.9-8.8,8.8v26.3h-17.5
		L288.8,61.3z M376.3,70v17.5h-52.5V70H376.3z M288.8,112.9c-1.6-2.3-2.4-5.1-2.3-7.9h127c0.2,3.7-1.2,7.3-3.9,9.8
		c-2.7,2.6-6.4,3.8-10,3.4l-20.5-2.3c-13.6-1.5-44.6-1.5-58.2,0l-20.5,2.3C295.9,118.8,291.4,116.7,288.8,112.9L288.8,112.9z
		 M265.9,472.5c2.9,0,5.3,2.4,5.3,5.3v41.9c0,2.9-2.4,5.3-5.3,5.3h-90.8c-16.5,0-32.1-7.8-42-20.9c-9.9-13.2-13.1-30.3-8.6-46.2
		l30.3-106.1l52.6,13.2L190,417.3c-4.6,3.8-7.7,9-8.9,14.8l-4.6,22.9h-19.1v17.5h26.3c4.2,0,7.8-2.9,8.6-7l6-30h0
		c0.8-3.9,4.2-6.8,8.2-6.8c2.5,0,4.9,1.1,6.5,3.1c1.6,1.9,2.2,4.5,1.7,7l-4.6,23.2h0c-0.5,2.6,0.2,5.2,1.8,7.3
		c1.7,2,4.1,3.2,6.8,3.2L265.9,472.5z M218.8,271.3c-4.8,0-8.8,3.9-8.8,8.8v67.5l-50.5-12.6l7.8-28.5c4.1-15.1,13.1-28.5,25.6-38
		c12.5-9.5,27.7-14.7,43.4-14.7H280v17.5L218.8,271.3z M315,367.5h-87.5v-78.8H315V367.5z M297.5,271.3v-20.8l6-3l17,23.8
		L297.5,271.3z M367.5,420h-35v-35h35V420z M367.5,367.5h-35v-78.8h35V367.5z M358,271.3h-16l-27-37.8v-15.4
		c10.6,6.2,22.7,9.4,35,9.4s24.4-3.3,35-9.4v15.4L358,271.3z M379.5,271.3l17-23.8l6,3v20.8L379.5,271.3z M385,367.5v-78.8h87.5
		v78.8H385z M562.1,509.6c-9.9,9.9-23.3,15.5-37.2,15.4h-90.8c-2.9,0-5.3-2.4-5.3-5.3v-41.8c0-2.9,2.4-5.3,5.3-5.3h47.2
		c2.6,0,5.1-1.2,6.8-3.2c1.7-2,2.3-4.7,1.8-7.3l-4.7-23.2c-0.2-1-0.2-2-0.1-3c0.7-4.1,4.2-7.1,8.3-7.1c2,0,3.8,0.7,5.3,1.9
		c1.5,1.2,2.5,2.9,2.9,4.8l6,30c0.8,4.1,4.4,7,8.6,7h26.3V455h-19.1l-4.6-22.9c-1.2-5.8-4.3-11.1-8.9-14.9L492.5,365l52.6-13.2
		l30.3,106.1c2.6,9,2.7,18.6,0.3,27.7C573.5,494.6,568.7,502.9,562.1,509.6L562.1,509.6z"/>
</g>
</svg>
