<?xml version="1.0" encoding="utf-8"?>
<!-- Generator: Adobe Illustrator 23.0.1, SVG Export Plug-In . SVG Version: 6.00 Build 0)  -->
<svg version="1.1" id="Layer_1" xmlns="http://www.w3.org/2000/svg" xmlns:xlink="http://www.w3.org/1999/xlink" x="0px" y="0px"
	 viewBox="0 0 700 700" style="enable-background:new 0 0 700 700;" xml:space="preserve">
<path d="M550.1,533.3l-52.6-81.5c-4.4-6.9-12-11-20.1-11h-70.5c38.5-77.9,95.9-194,96.2-194.6c11.8-23.9,18-49.9,17.9-75.2
	C521.1,76.8,444.3,0,350,0c-24.2,0-47.7,5-69.6,14.8c-4.1,1.8-6,6.7-4.1,10.8c1.8,4.1,6.7,6,10.8,4.1c19.8-8.9,41-13.3,63-13.3
	c85.3,0,154.7,69.4,154.7,154.7c0.1,22.8-5.6,46.3-16.2,67.9c-0.1,0.1-81.7,165.3-130.4,263.7c-1.6,3.1-4.6,5-8.1,5
	c-3.5,0-6.5-1.9-8.1-5l-28.2-57.1c-0.1-0.1-0.1-0.2-0.2-0.4L211.5,239c-10.6-21.5-16.2-45-16.2-67.9c0-49,22.5-94.1,61.7-123.7
	c3.6-2.7,4.3-7.9,1.6-11.5c-2.7-3.6-7.9-4.3-11.5-1.6c-20.7,15.6-37.9,36.1-49.7,59.1c-12.3,24.2-18.6,50.3-18.6,77.6
	c0,25.5,6.2,51.5,17.9,75.2l96.2,194.6h-70.5c-8.2,0-15.7,4.1-20.1,11l-52.6,81.5c-3.4,5.3-3.7,12.1-0.7,17.7c3,5.6,8.9,9,15.2,9
	h265.7c4.5,0,8.2-3.7,8.2-8.2s-3.7-8.2-8.2-8.2H164.4c-0.2,0-0.5,0-0.8-0.5c-0.3-0.5-0.1-0.8,0-0.9l52.6-81.5
	c1.4-2.2,3.8-3.5,6.3-3.5h78.6l26,52.7c4.3,8.7,13,14.1,22.8,14.1c9.7,0,18.5-5.4,22.8-14.1c0.4-0.7,11-22.2,26-52.7h78.6
	c2.6,0,4.9,1.3,6.3,3.5l52.6,81.5c0.1,0.1,0.3,0.5,0,0.9s-0.6,0.5-0.8,0.5h-67.1c-4.5,0-8.2,3.7-8.2,8.2s3.7,8.2,8.2,8.2h67.1
	c6.3,0,12.2-3.5,15.2-9C553.8,545.4,553.5,538.6,550.1,533.3L550.1,533.3z"/>
<path d="M350,295.5c68.6,0,124.4-55.8,124.4-124.4c0-68.6-55.8-124.4-124.4-124.4s-124.4,55.8-124.4,124.4
	C225.6,239.7,281.4,295.5,350,295.5z M350,63c59.6,0,108,48.5,108,108s-48.5,108-108,108s-108-48.5-108-108S290.4,63,350,63z"/>
<path d="M365.3,136.5c7.1,0,13.7-2.8,18.7-7.7c5-5,7.7-11.6,7.7-18.7c0-7.1-2.8-13.7-7.7-18.7s-11.6-7.7-18.7-7.7
	s-13.7,2.8-18.7,7.7c-5,5-7.8,11.6-7.8,18.7c0,7.1,2.8,13.7,7.7,18.7C351.6,133.7,358.2,136.5,365.3,136.5L365.3,136.5z
	 M358.1,102.9c1.8-1.8,4.3-2.9,7.1-2.9c5.4,0,10.1,4.7,10.1,10.1c0,5.5-4.5,10.1-10.1,10.1c-5.2,0-10.1-4.8-10.1-10.1
	C355.2,107.2,356.3,104.7,358.1,102.9L358.1,102.9z"/>
<path d="M395.5,177.6c5.2,5.2,11.9,7.7,18.7,7.7c6.8,0,13.5-2.6,18.7-7.7c10.3-10.3,10.3-27.1,0-37.4c-10.3-10.3-27.1-10.3-37.4,0
	C385.2,150.5,385.2,167.3,395.5,177.6z M407.1,151.8c2-2,4.5-2.9,7.1-2.9c2.6,0,5.1,1,7.1,2.9c3.9,3.9,3.9,10.3,0,14.2
	c-3.9,3.9-10.3,3.9-14.2,0C403.2,162.1,403.2,155.7,407.1,151.8L407.1,151.8z"/>
<path d="M351.7,198.9c6.8,0,13.5-2.6,18.7-7.7c10.3-10.3,10.3-27.1,0-37.4c-10.3-10.3-27.1-10.3-37.4,0c-10.3,10.3-10.3,27.1,0,37.4
	C338.2,196.4,345,198.9,351.7,198.9L351.7,198.9z M344.6,165.4c2-2,4.5-2.9,7.1-2.9c8.8,0,13.3,11,7.1,17.2
	c-3.9,3.9-10.3,3.9-14.2,0C340.7,175.7,340.7,169.3,344.6,165.4L344.6,165.4z"/>
</svg>
