<?xml version="1.0" encoding="utf-8"?>
<!-- Generator: Adobe Illustrator 23.0.1, SVG Export Plug-In . SVG Version: 6.00 Build 0)  -->
<svg version="1.1" id="Layer_1" xmlns="http://www.w3.org/2000/svg" xmlns:xlink="http://www.w3.org/1999/xlink" x="0px" y="0px"
	 viewBox="0 0 700 700" style="enable-background:new 0 0 700 700;" xml:space="preserve">
<g>
	<path d="M350,78.4c-67.2,0-121.5,54.3-121.5,121.5v6.2c0,2.2,1.7,3.9,3.4,5c2.2,0.6,4.5,0.6,6.2-1.1c2.8-2.2,5.6-4.5,8.4-6.7
		l77.8,108.6h-47.6c-12.3,0-22.4,10.1-22.4,22.4l0,124.9c0,12.3,10.1,22.4,22.4,22.4h147.3c12.3,0,22.4-10.1,22.4-22.4l0-124.9
		c0-12.3-10.1-22.4-22.4-22.4h-47L453,205.5c2.8,1.7,5.6,3.9,8.4,6.7c1.7,1.7,3.9,1.7,5.6,1.1c2.2-0.6,3.4-2.8,3.4-4.5
		c0-2.8,0.6-5.6,0.6-8.4C471.5,132.7,417.2,78.4,350,78.4L350,78.4z M372.4,323.1V364l-19.6-11.8c-1.1-0.6-1.7-0.6-2.8-0.6
		s-2.2,0-2.8,0.6L327,364v-40.9H372.4z M435.1,334.3v124.9c0,6.2-5,11.2-11.2,11.2H276.6c-6.2,0-11.2-5-11.2-11.2V334.3
		c0-6.2,5-11.2,11.2-11.2h39.8v51c0,2.2,1.1,3.9,2.8,5c1.7,1.1,3.9,1.1,5.6,0L350,364l25.2,15.1c1.1,0.6,1.7,0.6,2.8,0.6
		s1.7,0,2.8-0.6c1.7-1.1,2.8-2.8,2.8-5v-51h39.8C430.1,323.1,435.1,328.2,435.1,334.3L435.1,334.3z M337.7,311.9l-81.8-114.2
		c0.6,0,1.1-0.6,1.7-1.1c0.6,0,1.1-0.6,1.7-0.6c2.2-1.1,5-1.7,7.3-2.8h0.6l79,111.4c1.1,1.7,2.8,2.2,4.5,2.2s3.4-1.1,4.5-2.2
		l77.3-109.2c2.2,0.6,5,1.7,7.3,2.8c0.6,0,1.1,0.6,1.7,0.6c0.6,0.6,1.1,0.6,1.7,1.1l-80.1,112L337.7,311.9z M278.9,190.4
		c2.8-0.6,6.2-0.6,9-0.6c23,0,44.2,10.6,58.8,29.1c1.1,1.1,2.8,2.2,4.5,2.2s3.4-0.6,4.5-2.2c14-16.8,34.7-26.9,56.6-26.9
		c2.8,0,5.6,0,8.4,0.6l-70,99.1L278.9,190.4z M457.5,194.9c-1.1-0.6-2.2-1.1-2.8-1.7c-6.2-3.9-12.9-6.7-19.6-8.4
		c-1.1-0.6-2.2-0.6-3.4-1.1c-6.2-1.7-12.9-2.2-19-2.2c-23,0-44.8,9.5-61,25.8c-16.2-17.9-38.6-28-63.3-28c-6.7,0-13.4,0.6-20.2,2.2
		c-1.7,0.6-2.8,0.6-4.5,1.1c-6.7,1.7-12.9,4.5-18.5,8.4c-1.1,0.6-2.2,1.7-3.4,2.2c-0.6,0.6-1.1,0.6-1.1,1.1
		C243,136.1,291.2,89.6,350,89.6c59.9,0,108.6,47.6,110.3,107C459.8,196,458.6,195.4,457.5,194.9L457.5,194.9z"/>
</g>
</svg>
