<?xml version="1.0" encoding="utf-8"?>
<!-- Generator: Adobe Illustrator 23.0.1, SVG Export Plug-In . SVG Version: 6.00 Build 0)  -->
<svg version="1.1" id="Layer_1" xmlns="http://www.w3.org/2000/svg" xmlns:xlink="http://www.w3.org/1999/xlink" x="0px" y="0px"
	 viewBox="0 0 700 700" style="enable-background:new 0 0 700 700;" xml:space="preserve">
<g>
	<path d="M603.8,402.5h-17.5V96.3c0-4.8-3.9-8.8-8.8-8.8h-315c-4.8,0-8.8,3.9-8.8,8.8v131.3h-70c-3.2,0-6.2,1.8-7.7,4.6l-61.3,113.8
		c-0.7,1.3-1.1,2.7-1.1,4.1v52.5H96.3c-4.8,0-8.8,3.9-8.8,8.8v70c0,4.8,3.9,8.8,8.8,8.8H140c0,29,23.5,52.5,52.5,52.5
		S245,519,245,490h210c0,29,23.5,52.5,52.5,52.5S560,519,560,490h43.8c4.8,0,8.8-3.9,8.8-8.8v-70
		C612.5,406.4,608.6,402.5,603.8,402.5z M271.3,105h297.5v297.5H271.3V105z M189,245h64.8v96.3H137.1L189,245z M131.3,358.8h122.5
		v43.8H131.3V358.8z M192.5,525c-19.3,0-35-15.7-35-35c0-2.4,0.2-4.8,0.7-7c0-0.1,0.1-0.2,0.1-0.3c0.4-2.1,1.1-4,1.8-5.9
		c0.3-0.6,0.6-1.2,0.9-1.8c0.6-1.3,1.3-2.7,2.1-3.9c0.4-0.7,1-1.3,1.4-2c0.8-1,1.6-2,2.5-3c0.6-0.7,1.3-1.3,1.9-1.9
		c0.9-0.8,1.8-1.6,2.8-2.3c0.8-0.6,1.5-1.1,2.3-1.6c1-0.6,2-1.2,3.1-1.7c0.8-0.4,1.7-0.8,2.6-1.2c1.2-0.5,2.5-0.8,3.8-1.2
		c0.8-0.2,1.5-0.5,2.4-0.6c2.1-0.4,4.3-0.7,6.6-0.7s4.4,0.3,6.6,0.7c0.8,0.2,1.6,0.4,2.4,0.6c1.3,0.3,2.6,0.7,3.8,1.2
		c0.9,0.4,1.7,0.8,2.6,1.2c1.1,0.5,2.1,1.1,3.1,1.7c0.8,0.5,1.6,1,2.3,1.6c1,0.7,1.9,1.5,2.8,2.3c0.7,0.6,1.3,1.2,1.9,1.9
		c0.9,0.9,1.7,2,2.5,3c0.5,0.6,1,1.3,1.4,2c0.8,1.2,1.5,2.6,2.1,3.9c0.3,0.6,0.6,1.2,0.9,1.8c0.8,1.9,1.4,3.9,1.8,5.9
		c0,0.1,0.1,0.2,0.1,0.3c0.5,2.3,0.7,4.6,0.7,7C227.5,509.3,211.8,525,192.5,525L192.5,525z M507.5,525c-19.3,0-35-15.7-35-35
		c0-2.4,0.2-4.8,0.7-7c0-0.1,0.1-0.2,0.1-0.3c0.4-2.1,1.1-4,1.8-5.9c0.3-0.6,0.6-1.2,0.9-1.8c0.6-1.3,1.3-2.7,2.1-3.9
		c0.4-0.7,1-1.3,1.4-2c0.8-1,1.6-2,2.5-3c0.6-0.7,1.3-1.3,1.9-1.9c0.9-0.8,1.8-1.6,2.8-2.3c0.8-0.6,1.5-1.1,2.3-1.6
		c1-0.6,2-1.2,3.1-1.7c0.8-0.4,1.7-0.8,2.6-1.2c1.2-0.5,2.5-0.8,3.8-1.2c0.8-0.2,1.5-0.5,2.4-0.6c2.1-0.4,4.3-0.7,6.6-0.7
		s4.4,0.3,6.6,0.7c0.8,0.2,1.6,0.4,2.4,0.6c1.3,0.3,2.6,0.7,3.8,1.2c0.9,0.4,1.7,0.8,2.6,1.2c1.1,0.5,2.1,1.1,3.1,1.7
		c0.8,0.5,1.6,1,2.3,1.6c1,0.7,1.9,1.5,2.8,2.3c0.7,0.6,1.3,1.2,1.9,1.9c0.9,0.9,1.7,2,2.5,3c0.5,0.6,1,1.3,1.4,2
		c0.8,1.2,1.5,2.6,2.1,3.9c0.3,0.6,0.6,1.2,0.9,1.8c0.8,1.9,1.4,3.9,1.8,5.9c0,0.1,0.1,0.2,0.1,0.3c0.5,2.3,0.7,4.6,0.7,7
		C542.5,509.3,526.8,525,507.5,525L507.5,525z M595,472.5h-38c-0.1-0.3-0.3-0.6-0.4-0.9c-0.8-2.2-1.7-4.3-2.8-6.3
		c-0.1-0.1-0.1-0.2-0.1-0.3c-1.1-2.1-2.5-4.1-3.9-6c-0.3-0.4-0.6-0.8-0.9-1.2c-1.5-1.9-3-3.7-4.7-5.3c-0.2-0.1-0.3-0.3-0.5-0.4
		c-1.7-1.6-3.5-3.1-5.4-4.5c-0.2-0.1-0.4-0.3-0.6-0.4c-2-1.4-4.1-2.7-6.4-3.8c-0.2-0.1-0.5-0.2-0.7-0.4c-2.2-1.1-4.5-2-6.8-2.8
		c-0.1,0-0.1-0.1-0.2-0.1c-2.3-0.8-4.7-1.3-7.2-1.7c-0.5-0.1-1-0.2-1.5-0.2c-2.4-0.3-4.9-0.6-7.5-0.6s-5,0.2-7.5,0.6
		c-0.5,0.1-1,0.1-1.5,0.2c-2.4,0.4-4.9,1-7.2,1.7c-0.1,0-0.1,0.1-0.2,0.1c-2.4,0.8-4.6,1.7-6.8,2.8c-0.2,0.1-0.5,0.2-0.7,0.4
		c-2.2,1.1-4.3,2.4-6.4,3.8c-0.2,0.1-0.4,0.3-0.6,0.4c-1.9,1.4-3.7,2.9-5.4,4.5c-0.2,0.1-0.3,0.3-0.5,0.4c-1.7,1.7-3.3,3.4-4.7,5.3
		c-0.3,0.4-0.6,0.8-0.9,1.2c-1.4,1.9-2.7,3.9-3.9,6c-0.1,0.1-0.1,0.2-0.1,0.3c-1.1,2-2,4.1-2.8,6.3c-0.1,0.3-0.3,0.6-0.4,0.9l-216,0
		c-0.1-0.3-0.3-0.6-0.4-0.9c-0.8-2.2-1.7-4.3-2.8-6.3c-0.1-0.1-0.1-0.2-0.1-0.3c-1.1-2.1-2.5-4.1-3.9-6c-0.3-0.4-0.6-0.8-0.9-1.2
		c-1.5-1.9-3-3.7-4.7-5.3c-0.2-0.1-0.3-0.3-0.5-0.4c-1.7-1.6-3.5-3.1-5.4-4.5c-0.2-0.1-0.4-0.3-0.6-0.4c-2-1.4-4.1-2.7-6.4-3.8
		c-0.2-0.1-0.5-0.2-0.7-0.4c-2.2-1.1-4.5-2-6.8-2.8c-0.1,0-0.1-0.1-0.2-0.1c-2.3-0.8-4.7-1.3-7.2-1.7c-0.5-0.1-1-0.2-1.5-0.2
		c-2.4-0.3-4.9-0.6-7.5-0.6s-5,0.2-7.5,0.6c-0.5,0.1-1,0.1-1.5,0.2c-2.4,0.4-4.9,1-7.2,1.7c-0.1,0-0.1,0.1-0.2,0.1
		c-2.4,0.8-4.6,1.7-6.8,2.8c-0.2,0.1-0.5,0.2-0.7,0.4c-2.2,1.1-4.3,2.4-6.4,3.8c-0.2,0.1-0.4,0.3-0.6,0.4c-1.9,1.4-3.7,2.9-5.4,4.5
		c-0.2,0.1-0.3,0.3-0.5,0.4c-1.7,1.7-3.3,3.4-4.7,5.3c-0.3,0.4-0.6,0.8-0.9,1.2c-1.4,1.9-2.7,3.9-3.9,6c-0.1,0.1-0.1,0.2-0.1,0.3
		c-1.1,2-2,4.1-2.8,6.3c-0.1,0.3-0.3,0.6-0.4,0.8h-38V420h490L595,472.5z"/>
	<path d="M420,385c72.4,0,131.3-58.9,131.3-131.3S492.4,122.5,420,122.5s-131.3,58.9-131.3,131.3S347.6,385,420,385z M420,140
		c62.7,0,113.8,51,113.8,113.8s-51,113.8-113.8,113.8s-113.8-51-113.8-113.8S357.3,140,420,140z"/>
	<path d="M420,350c53.1,0,96.3-43.2,96.3-96.3s-43.2-96.3-96.3-96.3s-96.3,43.2-96.3,96.3S366.9,350,420,350z M420,175
		c43.4,0,78.8,35.3,78.8,78.8s-35.3,78.8-78.8,78.8s-78.8-35.3-78.8-78.8S376.6,175,420,175z"/>
	<path d="M411.3,297.5c0.2,0,0.4,0,0.6,0c2.5-0.2,4.9-1.4,6.4-3.5l52.5-70l-14-10.5l-46.5,61.9l-19.1-19.1l-12.4,12.4l26.3,26.3
		C406.7,296.6,408.9,297.5,411.3,297.5L411.3,297.5z"/>
</g>
</svg>
