<?xml version="1.0" encoding="utf-8"?>
<!-- Generator: Adobe Illustrator 23.0.1, SVG Export Plug-In . SVG Version: 6.00 Build 0)  -->
<svg version="1.1" id="Layer_1" xmlns="http://www.w3.org/2000/svg" xmlns:xlink="http://www.w3.org/1999/xlink" x="0px" y="0px"
	 viewBox="0 0 100 100" style="enable-background:new 0 0 100 100;" xml:space="preserve">
<style type="text/css">
	.st0{fill:#1A1A1A;}
</style>
<g>
	<path class="st0" d="M59.91,43.63l0.17-3.25c0-0.35-0.17-0.65-0.48-0.82l-2.9-1.47l-1.47-2.9c-0.17-0.3-0.48-0.52-0.82-0.48
		l-3.25,0.17l-2.73-1.78c-0.3-0.17-0.65-0.17-0.95,0l-2.73,1.78l-3.2-0.17c-0.35-0.05-0.65,0.17-0.82,0.48l-1.47,2.9l-2.9,1.47
		c-0.3,0.17-0.48,0.48-0.48,0.82l0.17,3.25l-1.78,2.73c-0.17,0.3-0.17,0.65,0,0.95l1.78,2.73l-0.17,3.25c0,0.35,0.17,0.65,0.48,0.82
		l2.9,1.47l1.47,2.9c0.17,0.3,0.48,0.52,0.82,0.48l3.25-0.17l2.73,1.78c0.13,0.09,0.3,0.13,0.48,0.13s0.35-0.05,0.48-0.13l2.73-1.78
		l3.25,0.17c0.35,0.05,0.65-0.17,0.82-0.48l1.47-2.9l2.9-1.47c0.3-0.17,0.48-0.48,0.48-0.82l-0.17-3.25l1.78-2.73
		c0.17-0.3,0.17-0.65,0-0.95L59.91,43.63z M58.31,49.29c-0.09,0.17-0.17,0.35-0.13,0.52l0.17,2.98l-2.64,1.35
		c-0.17,0.09-0.3,0.22-0.39,0.39l-1.35,2.64L51.03,57c-0.17,0-0.39,0.05-0.52,0.13l-2.5,1.65l-2.47-1.65
		c-0.13-0.09-0.3-0.13-0.48-0.13h-0.05l-2.98,0.17l-1.35-2.64c-0.09-0.17-0.22-0.3-0.39-0.39l-2.64-1.35l0.17-2.98
		c0-0.17-0.05-0.39-0.13-0.52l-1.64-2.47l1.65-2.47c0.09-0.17,0.17-0.35,0.13-0.52l-0.17-2.98l2.64-1.35
		c0.17-0.09,0.3-0.22,0.39-0.39l1.35-2.64l2.98,0.17c0.17,0,0.39-0.05,0.52-0.13l2.47-1.65l2.47,1.65c0.17,0.09,0.35,0.17,0.52,0.13
		l2.98-0.17l1.35,2.64c0.09,0.17,0.22,0.3,0.39,0.39l2.64,1.35l-0.17,2.95c0,0.17,0.05,0.39,0.13,0.52l1.65,2.47L58.31,49.29z"/>
	<path class="st0" d="M44.63,46.26c1.78,0,3.2-1.43,3.2-3.2s-1.43-3.2-3.2-3.2s-3.2,1.43-3.2,3.2
		C41.43,44.79,42.86,46.26,44.63,46.26z M44.63,41.55c0.82,0,1.47,0.65,1.47,1.47c0,0.82-0.65,1.47-1.47,1.47
		c-0.82,0-1.47-0.65-1.47-1.47C43.16,42.2,43.81,41.55,44.63,41.55z"/>
	<path class="st0" d="M51.39,47.39c-1.78,0-3.2,1.43-3.2,3.2s1.43,3.2,3.2,3.2s3.2-1.43,3.2-3.2
		C54.59,48.86,53.16,47.39,51.39,47.39z M51.39,52.11c-0.82,0-1.47-0.65-1.47-1.47c0-0.82,0.65-1.47,1.47-1.47
		c0.82,0,1.47,0.65,1.47,1.47C52.85,51.46,52.2,52.11,51.39,52.11z"/>
	<path class="st0" d="M41.85,51.76l11.12-11.12l1.22,1.22L43.08,52.98L41.85,51.76z"/>
</g>
</svg>
