<?xml version="1.0" encoding="utf-8"?>
<!-- Generator: Adobe Illustrator 23.0.1, SVG Export Plug-In . SVG Version: 6.00 Build 0)  -->
<svg version="1.1" id="Layer_1" xmlns="http://www.w3.org/2000/svg" xmlns:xlink="http://www.w3.org/1999/xlink" x="0px" y="0px"
	 viewBox="0 0 100 100" style="enable-background:new 0 0 100 100;" xml:space="preserve">
<style type="text/css">
	.st0{fill:#FFFFFF;}
</style>
<g>
	<path class="st0" d="M85.59,74.87h-1.27v-41.8c0-1.01-0.4-1.97-1.11-2.69c-0.71-0.71-1.68-1.11-2.69-1.11h-5.07v2.53h5.07
		c0.34,0,0.66,0.13,0.9,0.37c0.24,0.24,0.37,0.56,0.37,0.9v41.8H15.92v-41.8c0-0.7,0.57-1.27,1.27-1.27h5.07v-2.53h-5.07
		c-1.01,0-1.97,0.4-2.69,1.11c-0.71,0.71-1.11,1.68-1.11,2.69v41.8h-1.27c-0.7,0-1.27,0.57-1.27,1.27v5.07
		c0,1.01,0.4,1.97,1.11,2.69C12.68,84.6,13.65,85,14.65,85h68.4c1.01,0,1.97-0.4,2.69-1.11c0.71-0.71,1.11-1.68,1.11-2.69v-5.07
		c0-0.34-0.13-0.66-0.37-0.9C86.24,75,85.92,74.87,85.59,74.87z M84.32,81.2c0,0.34-0.13,0.66-0.37,0.9s-0.56,0.37-0.9,0.37h-68.4
		c-0.7,0-1.27-0.57-1.27-1.27v-3.8h29.13v1.27c0,0.34,0.13,0.66,0.37,0.9s0.56,0.37,0.9,0.37h10.13c0.34,0,0.66-0.13,0.9-0.37
		c0.24-0.24,0.37-0.56,0.37-0.9V77.4h29.13V81.2z"/>
	<path class="st0" d="M26.05,11.53h34.2v11.4c0,0.34,0.13,0.66,0.37,0.9s0.56,0.37,0.9,0.37h10.13V66h2.53V21.62
		c0-0.31-0.11-0.61-0.32-0.84L63.72,9.42C63.48,9.15,63.13,9,62.77,9H24.79c-0.7,0-1.27,0.57-1.27,1.27V66h2.53L26.05,11.53z
		 M71.26,21.67h-8.47v-9.48L71.26,21.67z"/>
	<path class="st0" d="M28.59,63.47c0,0.34,0.13,0.66,0.37,0.9c0.24,0.24,0.56,0.37,0.9,0.37h38c0.34,0,0.66-0.13,0.9-0.37
		c0.24-0.24,0.37-0.56,0.37-0.9V30.53c0-0.34-0.13-0.66-0.37-0.9c-0.24-0.24-0.56-0.37-0.9-0.37h-38c-0.7,0-1.27,0.57-1.27,1.27
		V63.47z M31.12,62.2V36.87h5.07V62.2H31.12z M38.72,62.2V36.87h27.87V62.2H38.72z M66.59,34.33H38.72V31.8h27.87V34.33z
		 M31.12,31.8h5.07v2.53h-5.07V31.8z"/>
	<path class="st0" d="M28.59,16.6h2.53v2.53h-2.53V16.6z"/>
	<path class="st0" d="M33.65,16.6h15.2v2.53h-15.2V16.6z"/>
	<path class="st0" d="M28.59,21.67h20.27v2.53H28.59V21.67z"/>
	<path class="st0" d="M41.25,39.4h22.8v2.53h-22.8V39.4z"/>
	<path class="st0" d="M41.25,44.47h22.8V47h-22.8V44.47z"/>
	<path class="st0" d="M41.25,49.53h22.8v2.53h-22.8V49.53z"/>
	<path class="st0" d="M41.25,54.6h22.8v2.53h-22.8V54.6z"/>
</g>
</svg>
