<?xml version="1.0" encoding="utf-8"?>
<!-- Generator: Adobe Illustrator 23.0.1, SVG Export Plug-In . SVG Version: 6.00 Build 0)  -->
<svg version="1.1" id="Layer_1" xmlns="http://www.w3.org/2000/svg" xmlns:xlink="http://www.w3.org/1999/xlink" x="0px" y="0px"
	 viewBox="0 0 100 100" style="enable-background:new 0 0 100 100;" xml:space="preserve">
<g>
	<path d="M63.65,60.56h-2.06V35.11c0-0.84-0.68-1.53-1.53-1.53h-8.48v-3.15c0-0.26-0.21-0.46-0.46-0.46h-7.76
		c-0.26,0-0.46,0.21-0.46,0.46v3.15h-0.71c-0.84,0-1.53,0.68-1.53,1.53v25.45H38.6c-0.26,0-0.46,0.21-0.46,0.46v2.45
		c0,0.26,0.21,0.46,0.46,0.46h25.05c0.26,0,0.46-0.21,0.46-0.46v-2.45C64.11,60.76,63.9,60.56,63.65,60.56z M43.83,30.9h6.83v2.68
		h-6.83V30.9z M41.59,35.11c0-0.33,0.27-0.6,0.6-0.6h17.88c0.33,0,0.6,0.27,0.6,0.6v25.45h-6.09v-5.04h1.16
		c0.26,0,0.46-0.21,0.46-0.46v-2.09c0-0.26-0.21-0.46-0.46-0.46h-9.22c-0.26,0-0.46,0.21-0.46,0.46v2.09c0,0.26,0.21,0.46,0.46,0.46
		h1.16v5.04h-6.09V35.11z M46.98,54.58v-1.16h8.29v1.16H46.98z M48.6,55.51h5.04v5.04H48.6L48.6,55.51z M63.18,63.01H39.07v-1.53
		h24.12V63.01z"/>
	<path d="M43.78,39.72h5.39c0.26,0,0.46-0.21,0.46-0.46V36.7c0-0.26-0.21-0.46-0.46-0.46h0h-5.39c-0.26,0-0.46,0.21-0.46,0.46v2.56
		C43.31,39.52,43.52,39.72,43.78,39.72z M44.24,37.16h4.46v1.63h-4.46V37.16z"/>
	<path d="M43.78,45.24h5.39c0.26,0,0.46-0.21,0.46-0.46v0v-2.56c0-0.26-0.21-0.46-0.46-0.46h-5.39c-0.26,0-0.46,0.21-0.46,0.46v2.56
		C43.31,45.04,43.52,45.24,43.78,45.24z M44.24,42.69h4.46v1.63h-4.46V42.69z"/>
	<path d="M49.63,50.3v-2.56c0-0.26-0.21-0.46-0.46-0.46h0h-5.39c-0.26,0-0.46,0.21-0.46,0.46v2.56c0,0.26,0.21,0.46,0.46,0.46h5.39
		C49.42,50.77,49.63,50.56,49.63,50.3z M48.7,49.84h-4.46v-1.63h4.46V49.84z"/>
	<path d="M53.08,39.72h5.39c0.26,0,0.46-0.21,0.46-0.46V36.7c0-0.26-0.21-0.46-0.46-0.46h0h-5.39c-0.26,0-0.46,0.21-0.46,0.46v0
		v2.56C52.62,39.52,52.83,39.72,53.08,39.72z M53.55,37.16h4.46v1.63h-4.46V37.16z"/>
	<path d="M53.08,45.24h5.39c0.26,0,0.46-0.21,0.46-0.46v0v-2.56c0-0.26-0.21-0.46-0.46-0.46h-5.39c-0.26,0-0.46,0.21-0.46,0.46v2.56
		C52.62,45.04,52.82,45.24,53.08,45.24C53.08,45.24,53.08,45.24,53.08,45.24z M53.55,42.69h4.46v1.63h-4.46V42.69z"/>
	<path d="M53.08,50.77h5.39c0.26,0,0.46-0.21,0.46-0.46v-2.56c0-0.26-0.21-0.46-0.46-0.46h0h-5.39c-0.26,0-0.46,0.21-0.46,0.46v0
		v2.56C52.62,50.56,52.83,50.77,53.08,50.77z M53.55,48.21h4.46v1.63h-4.46V48.21z"/>
</g>
</svg>
