<?xml version="1.0" encoding="utf-8"?>
<!-- Generator: Adobe Illustrator 23.0.1, SVG Export Plug-In . SVG Version: 6.00 Build 0)  -->
<svg version="1.1" id="Layer_1" xmlns="http://www.w3.org/2000/svg" xmlns:xlink="http://www.w3.org/1999/xlink" x="0px" y="0px"
	 viewBox="0 0 700 700" style="enable-background:new 0 0 700 700;" xml:space="preserve">
<path d="M288.8,227.5c0-4.8,3.9-8.8,8.8-8.8H420c4.8,0,8.8,3.9,8.8,8.8s-3.9,8.8-8.8,8.8H297.5C292.7,236.3,288.8,232.3,288.8,227.5
	z M297.5,323.8H420c4.8,0,8.8-3.9,8.8-8.8s-3.9-8.8-8.8-8.8H297.5c-4.8,0-8.8,3.9-8.8,8.8S292.7,323.8,297.5,323.8z M296.5,96.3
	c2.5,2.8,6,4.4,9.7,4.4s7.3-1.6,9.7-4.4c0.7-0.6,1.2-1.4,1.7-2.2c1.2-2,1.8-4.3,1.8-6.6c0-7.3-5.9-13.1-13.1-13.1
	s-13.1,5.9-13.1,13.1c0,2.3,0.6,4.6,1.8,6.6C295.3,94.9,295.9,95.6,296.5,96.3z M203,241.3c2.2,2.6,5.4,4.2,8.9,4.4h0.5
	c3.2,0,6.3-1.3,8.6-3.6l43.3-42.6c3.5-3.4,3.5-8.9,0.1-12.4c-3.4-3.5-8.9-3.5-12.4-0.1l-39.2,38.8l-9.2-10.9h0
	c-3.1-3.7-8.6-4.2-12.3-1c-3.7,3.1-4.2,8.6-1,12.3L203,241.3z M211.9,333.2h0.5v0c3.2,0,6.3-1.3,8.6-3.6l43.3-42.6
	c3.5-3.4,3.5-8.9,0.1-12.4c-3.4-3.5-8.9-3.5-12.4-0.1l-39.2,38.8l-9.2-10.9h0c-3.1-3.7-8.6-4.2-12.3-1c-3.7,3.1-4.2,8.6-1,12.3
	l12.8,15.2C205.2,331.4,208.4,333.1,211.9,333.2L211.9,333.2z M260.8,370.7l-39.2,38.8l-9.2-10.9h0c-3.1-3.7-8.6-4.2-12.3-1
	c-3.7,3.1-4.2,8.6-1,12.3l12.8,15.2c2.2,2.6,5.4,4.2,8.9,4.4h0.5c3.2,0,6.3-1.3,8.6-3.6l43.3-42.6c3.5-3.4,3.5-8.9,0.1-12.4
	C269.7,367.4,264.2,367.4,260.8,370.7L260.8,370.7z M498.8,402.5c0,9.3-3.7,18.1-10.3,24.7c-6.6,6.5-15.4,10.2-24.7,10.2
	c-9.3,0-18.1-3.7-24.7-10.2c-6.5-6.6-10.2-15.4-10.2-24.7c0-9.3,3.7-18.1,10.2-24.7c6.5-6.6,15.4-10.2,24.7-10.3
	c9.3,0,18.2,3.7,24.8,10.3C495.1,384.3,498.8,393.2,498.8,402.5L498.8,402.5z M481.3,402.5c0-4.6-1.8-9.1-5.1-12.4
	s-7.7-5.1-12.4-5.1s-9.1,1.8-12.4,5.1s-5.1,7.7-5.1,12.4s1.8,9.1,5.1,12.4s7.7,5.1,12.4,5.1c4.6,0,9.1-1.9,12.4-5.1
	S481.2,407.1,481.3,402.5L481.3,402.5z M560,420c0,25-9.7,49.1-27.2,67c-4.2,4.3-8.7,8.2-13.7,11.6c-16.2,11.4-35.5,17.6-55.3,17.6
	s-39.2-6.1-55.4-17.5H175c-7,0-13.6-2.8-18.5-7.7c-4.9-4.9-7.7-11.6-7.7-18.5v-350c0-7,2.8-13.6,7.7-18.5c4.9-4.9,11.6-7.7,18.5-7.7
	h35v-8.8c0-4.6,1.9-9.1,5.1-12.4s7.7-5.1,12.4-5.1h23.4c6.6-14,18.4-25,32.8-30.7c14.4-5.7,30.5-5.7,45,0
	C343.2,45,354.9,56,361.6,70H385c4.6,0,9.1,1.9,12.4,5.1s5.1,7.7,5.1,12.4v8.8h35c7,0,13.6,2.8,18.5,7.7c4.9,4.9,7.7,11.6,7.7,18.5
	v201.3c25.5,0,50,10.2,68,28.2S560,394.5,560,420L560,420z M227.5,96.3v26.3H385v-35h-35.9c-1.3-6.4-4-12.3-7.9-17.5
	c-8.3-11-21.2-17.5-35-17.5s-26.7,6.5-35,17.5c-3.9,5.2-6.6,11.1-7.9,17.5h-35.9V96.3z M389.5,481.3c-14.2-17.2-22-38.9-22-61.3h-70
	c-4.8,0-8.8-3.9-8.8-8.8s3.9-8.8,8.8-8.8h71.6c3.6-19.2,12.8-36.8,26.6-50.6s31.4-23.1,50.6-26.6V122.5c0-2.3-0.9-4.5-2.6-6.2
	s-3.9-2.6-6.2-2.6h-35v8.8c0,4.6-1.9,9.1-5.1,12.4s-7.7,5.1-12.4,5.1H227.5c-4.6,0-9.1-1.9-12.4-5.1s-5.1-7.7-5.1-12.4v-8.8h-35
	c-4.8,0-8.8,3.9-8.8,8.8v350c0,2.3,0.9,4.5,2.6,6.2s3.9,2.6,6.2,2.6L389.5,481.3z M509.3,484.1c-11.6-13-28.2-20.4-45.6-20.4
	c-16,0-31.4,6.3-42.9,17.5c-1,0.9-1.9,1.8-2.7,2.9c8.6,6.2,18.4,10.5,28.7,12.8c5.5,1.2,11.2,1.8,16.9,1.8
	C480.1,498.8,496,493.7,509.3,484.1L509.3,484.1z M542.5,420c0-20.9-8.3-40.9-23.1-55.6c-14.8-14.8-34.8-23.1-55.6-23.1
	c-5.9,0-11.8,0.7-17.5,1.9c-14.4,3.3-27.7,10.7-38.2,21.2s-17.8,23.7-21.2,38.2c-1.3,5.7-1.9,11.6-1.9,17.5c0,19.3,7.1,38,20,52.4
	c10.9-12.2,25.3-20.6,41.2-24.2c5.7-1.3,11.6-2,17.5-2c22.4,0,43.8,9.5,58.7,26.2C535.4,458,542.5,439.3,542.5,420L542.5,420z"/>
</svg>
