<?xml version="1.0" encoding="utf-8"?>
<!-- Generator: Adobe Illustrator 23.0.1, SVG Export Plug-In . SVG Version: 6.00 Build 0)  -->
<svg version="1.1" id="Layer_1" xmlns="http://www.w3.org/2000/svg" xmlns:xlink="http://www.w3.org/1999/xlink" x="0px" y="0px"
	 viewBox="0 0 100 100" style="enable-background:new 0 0 100 100;" xml:space="preserve">
<style type="text/css">
	.st0{fill:#FFFFFF;}
</style>
<g>
	<g>
		<g>
			<path class="st0" d="M74.22,66.74c-0.34-0.88-1.02-1.58-1.89-1.94c-0.85-0.36-1.81-0.36-2.66,0l-6.15,2.61
				c0.02-0.11,0.03-0.23,0.03-0.34c0-1.83-1.49-3.32-3.32-3.32h-7.36c-0.74,0-1.48-0.17-2.14-0.51c-3.08-1.53-6.47-2.34-9.91-2.34
				H40.3c-0.52,0-0.95,0.42-0.95,0.95s0.42,0.95,0.95,0.95h0.51c3.15,0,6.25,0.74,9.07,2.14c0.93,0.46,1.95,0.7,2.99,0.71h7.36
				c0.79,0,1.42,0.65,1.42,1.43c0,0.66-0.46,1.23-1.1,1.38c-0.12,0.01-0.25,0.04-0.37,0.04H48.84c-0.52,0-0.95,0.42-0.95,0.95
				c0,0.52,0.42,0.95,0.95,0.95h11.33h0.05h0.01c0.02,0,0.04-0.01,0.06-0.01c0.75-0.01,1.5-0.17,2.19-0.46l7.93-3.37
				c0.38-0.16,0.81-0.16,1.19,0c0.39,0.17,0.7,0.48,0.85,0.88c0.16,0.41,0.15,0.86-0.03,1.26c-0.17,0.39-0.48,0.69-0.88,0.84
				l-14.66,5.59c-3.44,1.32-7.26,1.28-10.68-0.12l-7.8-3.24V60.9c0-0.52-0.42-0.95-0.95-0.95h-7.59c-0.52,0-0.95,0.42-0.95,0.95
				h-4.74c-0.52,0-0.95,0.42-0.95,0.95s0.42,0.95,0.95,0.95h4.74v4.74c0,0.52,0.42,0.95,0.95,0.95c0.52,0,0.95-0.42,0.95-0.95v-5.69
				h5.69v11.39h-5.69v-1.9c0-0.52-0.42-0.95-0.95-0.95c-0.52,0-0.95,0.42-0.95,0.95v0.95h-4.74c-0.52,0-0.95,0.42-0.95,0.95
				c0,0.52,0.42,0.95,0.95,0.95h4.74c0,0.52,0.42,0.95,0.95,0.95h7.59c0.52,0,0.95-0.42,0.95-0.95v-0.36l7.08,2.94
				c3.86,1.58,8.18,1.62,12.08,0.13l14.66-5.59c0.87-0.33,1.57-1,1.94-1.85C74.55,68.6,74.57,67.62,74.22,66.74z"/>
		</g>
	</g>
	<g>
		<g>
			<path class="st0" d="M73.47,29.33c0-0.01,0-0.02,0-0.03c-0.04-0.11-0.09-0.21-0.17-0.3c-0.02-0.03-0.05-0.05-0.07-0.07
				c-0.06-0.06-0.12-0.1-0.18-0.14c-0.03-0.02-0.07-0.04-0.11-0.06c-0.03-0.02-0.06-0.03-0.09-0.04l-20.88-6.64
				c-0.19-0.06-0.39-0.06-0.58,0l-20.88,6.64c-0.39,0.12-0.66,0.49-0.67,0.9v22.77c0,0.41,0.27,0.78,0.66,0.9l20.88,6.64
				c0.19,0.06,0.39,0.06,0.58,0l20.88-6.64c0.39-0.13,0.66-0.49,0.66-0.9V29.59C73.51,29.5,73.5,29.42,73.47,29.33z M51.69,23.94
				l17.74,5.65l-3.67,1.17l-17.74-5.65L51.69,23.94z M44.89,26.1l17.74,5.65l-3.67,1.17l-17.74-5.65L44.89,26.1z M71.62,51.67
				l-18.98,6.04v-3.45c0-0.52-0.42-0.95-0.95-0.95c-0.52,0-0.95,0.42-0.95,0.95v3.45l-18.98-6.04V30.28l6.33-2.01l17.74,5.65
				l-4.14,1.32l-15.85-5.04c-0.5-0.16-1.03,0.12-1.19,0.62c-0.16,0.5,0.12,1.03,0.62,1.19l15.47,4.92v13.54
				c0,0.52,0.42,0.95,0.95,0.95c0.52,0,0.95-0.42,0.95-0.95V36.92l5.38-1.71v6.3c0,0.52,0.42,0.95,0.95,0.95
				c0.1,0,0.19-0.02,0.28-0.04l2.21-0.71c0.5-0.16,0.78-0.69,0.62-1.19c-0.16-0.5-0.69-0.78-1.19-0.62l-0.98,0.31v-5.6l4.9-1.56v5.6
				l-1.08,0.34c-0.5,0.16-0.78,0.69-0.62,1.19c0.12,0.39,0.49,0.66,0.9,0.66c0.1,0,0.19-0.01,0.28-0.04l1.74-0.55
				c0.39-0.12,0.66-0.49,0.66-0.9v-6.9l4.91-1.56V51.67L71.62,51.67z"/>
		</g>
	</g>
	<g>
		<g>
			<path class="st0" d="M34.61,45.72c-0.52,0-0.95,0.42-0.95,0.95v2.85c0,0.52,0.42,0.95,0.95,0.95c0.52,0,0.95-0.42,0.95-0.95
				v-2.85C35.56,46.14,35.13,45.72,34.61,45.72z"/>
		</g>
	</g>
	<g>
		<g>
			<path class="st0" d="M38.41,46.67c-0.52,0-0.95,0.42-0.95,0.95v2.85c0,0.52,0.42,0.95,0.95,0.95s0.95-0.42,0.95-0.95v-2.85
				C39.35,47.09,38.93,46.67,38.41,46.67z"/>
		</g>
	</g>
</g>
</svg>
