<?xml version="1.0" encoding="utf-8"?>
<!-- Generator: Adobe Illustrator 23.0.1, SVG Export Plug-In . SVG Version: 6.00 Build 0)  -->
<svg version="1.1" id="Layer_1" xmlns="http://www.w3.org/2000/svg" xmlns:xlink="http://www.w3.org/1999/xlink" x="0px" y="0px"
	 viewBox="0 0 100 100" style="enable-background:new 0 0 100 100;" xml:space="preserve">
<g>
	<path d="M66.57,23.47c0.66,0,1.2-0.54,1.2-1.2v-1.61c0-0.66-0.54-1.2-1.2-1.2s-1.2,0.54-1.2,1.2v1.61
		C65.37,22.93,65.91,23.47,66.57,23.47z"/>
	<path d="M79.64,34.13c-0.66,0-1.2,0.54-1.2,1.2s0.54,1.2,1.2,1.2h1.61c0.66,0,1.2-0.54,1.2-1.2s-0.54-1.2-1.2-1.2H79.64z"/>
	<path d="M51.89,34.13c-0.66,0-1.2,0.54-1.2,1.2s0.54,1.2,1.2,1.2h1.61c0.66,0,1.2-0.54,1.2-1.2s-0.54-1.2-1.2-1.2H51.89z"/>
	<path d="M71.84,72.5c-2.13,0-3.87,1.74-3.87,3.87s1.74,3.87,3.87,3.87c2.13,0,3.87-1.74,3.87-3.87S73.98,72.5,71.84,72.5z
		 M71.84,77.84c-0.81,0-1.47-0.66-1.47-1.47s0.66-1.47,1.47-1.47c0.81,0,1.47,0.66,1.47,1.47S72.65,77.84,71.84,77.84z"/>
	<path d="M27.98,76.37c0,2.13,1.74,3.87,3.87,3.87s3.87-1.74,3.87-3.87s-1.74-3.87-3.87-3.87S27.98,74.24,27.98,76.37z M33.32,76.37
		c0,0.81-0.66,1.47-1.47,1.47s-1.47-0.66-1.47-1.47s0.66-1.47,1.47-1.47C32.66,74.9,33.32,75.56,33.32,76.37z"/>
	<path d="M40.01,57.93c1.36-1.32,1.51-3.62-0.03-5.11l-4.99-4.86c-1.8-1.75-4.69-1.71-6.45,0.09l-0.93,0.96
		c-0.46,0.48-0.45,1.24,0.02,1.7l4.81,4.68l-4.81,4.68c-0.23,0.22-0.36,0.53-0.36,0.84c0,0.32,0.12,0.63,0.34,0.85l0.93,0.96
		c1.76,1.81,4.64,1.84,6.45,0.09L40.01,57.93z M30.26,61.06l-0.1-0.1L35,56.25c0.23-0.23,0.36-0.54,0.36-0.86
		c0-0.32-0.13-0.63-0.36-0.86l-4.84-4.71l0.1-0.1c0.83-0.85,2.2-0.87,3.05-0.04l4.99,4.86c0.53,0.52,0.46,1.25,0.03,1.67l-5.02,4.89
		C32.46,61.92,31.1,61.92,30.26,61.06L30.26,61.06z"/>
	<path d="M65.37,35.33c0,0.66,0.54,1.2,1.2,1.2h4.08c0.66,0,1.2-0.54,1.2-1.2s-0.54-1.2-1.2-1.2h-2.88v-7.48
		c0-0.66-0.54-1.2-1.2-1.2s-1.2,0.54-1.2,1.2V35.33z"/>
	<path d="M25.37,25.07h20.68c0.66,0,1.2-0.54,1.2-1.2c0-0.66-0.54-1.2-1.2-1.2H25.37c-0.66,0-1.2,0.54-1.2,1.2
		C24.17,24.53,24.71,25.07,25.37,25.07L25.37,25.07z"/>
	<path d="M20.36,31.27h21.47c0.66,0,1.2-0.54,1.2-1.2s-0.54-1.2-1.2-1.2H20.36c-0.66,0-1.2,0.54-1.2,1.2S19.69,31.27,20.36,31.27z"
		/>
	<path d="M32.64,34.41c-0.66,0-1.2,0.54-1.2,1.2s0.54,1.2,1.2,1.2h10.68c0.66,0,1.2-0.54,1.2-1.2s-0.54-1.2-1.2-1.2H32.64z"/>
	<path d="M22.51,34.41c-0.66,0-1.2,0.54-1.2,1.2s0.54,1.2,1.2,1.2h5.33c0.66,0,1.2-0.54,1.2-1.2s-0.54-1.2-1.2-1.2H22.51z"/>
	<path d="M6.05,53.35h4.39c0.66,0,1.2-0.54,1.2-1.2s-0.54-1.2-1.2-1.2H6.05c-0.66,0-1.2,0.54-1.2,1.2S5.39,53.35,6.05,53.35z"/>
	<path d="M9.26,63.93h-3.2c-0.66,0-1.2,0.54-1.2,1.2s0.54,1.2,1.2,1.2h3.2c0.66,0,1.2-0.54,1.2-1.2S9.92,63.93,9.26,63.93z"/>
	<path d="M23.39,53.76H19.1c-0.66,0-1.2,0.54-1.2,1.2c0,0.66,0.54,1.2,1.2,1.2h4.28c0.66,0,1.2-0.54,1.2-1.2
		C24.59,54.3,24.05,53.76,23.39,53.76z"/>
	<path d="M77.89,52.16c5.57-3.75,8.97-10.07,8.97-16.83c0-3.21-0.73-6.29-2.17-9.14c-0.3-0.59-1.02-0.83-1.61-0.53
		c-0.59,0.3-0.83,1.02-0.53,1.61c1.27,2.51,1.91,5.22,1.91,8.06c0,6.08-3.12,11.76-8.21,15.03l-6.99-7.65
		c-0.81-0.89-1.97-1.4-3.17-1.4H49.72c-0.68-1.92-1.03-3.93-1.03-5.98c0-9.86,8.02-17.88,17.88-17.88c5.11,0,9.99,2.2,13.39,6.03
		c0.44,0.5,1.2,0.54,1.7,0.1c0.5-0.44,0.54-1.2,0.1-1.7c-1.76-1.99-3.88-3.59-6.22-4.75v-4.07c0-1.48-1.2-2.68-2.68-2.68H60.29
		c-1.48,0-2.68,1.2-2.68,2.68v4.07c-6.7,3.31-11.31,10.22-11.31,18.19c0,2.05,0.3,4.05,0.9,5.98H16.56c-1.53,0-2.79,1.18-2.91,2.69
		H9.26c-0.66,0-1.2,0.54-1.2,1.2s0.54,1.2,1.2,1.2h4.38v11.61H6.05c-0.66,0-1.2,0.54-1.2,1.2s0.54,1.2,1.2,1.2h7.58v3.51
		c-0.66,0.01-1.19,0.54-1.19,1.2c0,0.66,0.53,1.19,1.19,1.2v8.5c0,1.26,1.03,2.29,2.29,2.29h3.23v0.84h-3.75
		c-0.66,0-1.2,0.54-1.2,1.2s0.54,1.2,1.2,1.2h4.95c0.66,0,1.2-0.54,1.2-1.2v-2.04h1.1c0.38,4.74,4.36,8.48,9.2,8.48
		c1.6,0,3.17-0.42,4.56-1.2c0.58-0.33,0.78-1.06,0.45-1.64c-0.33-0.58-1.06-0.78-1.64-0.45c-1.02,0.58-2.19,0.89-3.37,0.89
		c-3.76,0-6.83-3.06-6.83-6.83c0-3.76,3.06-6.83,6.83-6.83s6.83,3.06,6.83,6.83c0,1.03-0.22,2.01-0.66,2.93
		c-0.29,0.6-0.03,1.32,0.57,1.6c0.6,0.29,1.32,0.03,1.6-0.57c0.49-1.02,0.77-2.1,0.86-3.22h21.6c0.38,4.74,4.36,8.48,9.2,8.48
		c4.84,0,8.82-3.74,9.2-8.48h2.47c1.84,0,3.34-1.5,3.34-3.34V63.64c0-1.07-0.4-2.1-1.12-2.89L77.89,52.16z M60.01,13.08
		c0-0.15,0.12-0.28,0.28-0.28h12.57c0.15,0,0.28,0.12,0.28,0.28v3.07c-2.09-0.72-4.31-1.09-6.56-1.09c-2.3,0-4.5,0.38-6.56,1.09
		L60.01,13.08L60.01,13.08z M67.48,44.34l12.5,13.68h-8.96c-0.66,0-1.2,0.54-1.2,1.2s0.54,1.2,1.2,1.2h11.16l1.78,1.95
		c0.73,0.8,0.42,1.66,0.49,2.58h-0.93c-0.66,0-1.2,0.54-1.2,1.2s0.54,1.2,1.2,1.2h0.93v1.78h-6.9c-1.57-1.24-3.55-1.98-5.71-1.98
		s-4.13,0.74-5.71,1.98H53.05v-25.4h5.18V58c0,1.33,1.08,2.42,2.42,2.42h5.57c0.66,0,1.2-0.54,1.2-1.2s-0.54-1.2-1.2-1.2h-5.57
		c-0.01,0-0.02-0.01-0.02-0.02V43.72h5.45C66.61,43.72,67.12,43.94,67.48,44.34z M62.76,74.71h-9.72v-3.19h10.94
		C63.4,72.49,62.97,73.56,62.76,74.71z M39.7,71.53h10.94v3.19h-9.72C40.72,73.56,40.3,72.49,39.7,71.53L39.7,71.53z M16.04,71.53
		H24c-0.59,0.96-1.02,2.04-1.23,3.19h-6.73V71.53z M26.15,69.12H16.04v-2.79h5.21c0.66,0,1.2-0.54,1.2-1.2c0-0.66-0.54-1.2-1.2-1.2
		h-5.21v-3.51h5.21c0.66,0,1.2-0.54,1.2-1.2s-0.54-1.2-1.2-1.2h-5.21V44.24c0-0.29,0.23-0.52,0.52-0.52h34.08v25.4H37.56
		c-1.57-1.24-3.55-1.98-5.71-1.98S27.72,67.88,26.15,69.12L26.15,69.12z M71.84,83.2c-3.76,0-6.83-3.06-6.83-6.83
		c0-3.76,3.06-6.83,6.83-6.83c3.76,0,6.83,3.06,6.83,6.83C78.67,80.13,75.61,83.2,71.84,83.2z M83.51,74.71h-2.59
		c-0.21-1.15-0.63-2.23-1.23-3.19h4.76v2.25C84.45,74.29,84.03,74.71,83.51,74.71z"/>
</g>
</svg>
