<?xml version="1.0" encoding="utf-8"?>
<!-- Generator: Adobe Illustrator 23.0.1, SVG Export Plug-In . SVG Version: 6.00 Build 0)  -->
<svg version="1.1" id="Layer_1" xmlns="http://www.w3.org/2000/svg" xmlns:xlink="http://www.w3.org/1999/xlink" x="0px" y="0px"
	 viewBox="0 0 100 100" style="enable-background:new 0 0 100 100;" xml:space="preserve">
<g>
	<path d="M77.3,68.26c-4.15,0-7.55,3.23-7.84,7.31h-3.21l-4.52-2.73c-0.17-0.1-0.39-0.11-0.56-0.01c-0.18,0.1-0.28,0.29-0.28,0.49
		v2.25h-3.18c-0.29-4.08-3.69-7.31-7.84-7.31s-7.55,3.23-7.84,7.31H38.8l-4.52-2.73c-0.17-0.1-0.39-0.11-0.56-0.01
		c-0.18,0.1-0.28,0.29-0.28,0.49v2.25h-3.18c-0.29-4.08-3.69-7.31-7.84-7.31c-4.34,0-7.87,3.53-7.87,7.87
		c0,4.34,3.53,7.87,7.87,7.87c4.15,0,7.55-3.23,7.84-7.31h3.18v2.15c0,0.2,0.11,0.39,0.28,0.49c0.09,0.05,0.18,0.07,0.28,0.07
		c0.1,0,0.2-0.03,0.28-0.08l4.53-2.64h3.22C42.3,80.76,45.7,84,49.85,84c4.15,0,7.55-3.23,7.84-7.31h3.18v2.15
		c0,0.2,0.11,0.39,0.28,0.49c0.09,0.05,0.18,0.07,0.28,0.07c0.1,0,0.2-0.03,0.28-0.08l4.53-2.64h3.22c0.29,4.08,3.69,7.31,7.84,7.31
		c4.34,0,7.87-3.53,7.87-7.87C85.17,71.79,81.64,68.26,77.3,68.26L77.3,68.26z M22.41,82.87c-3.72,0-6.75-3.03-6.75-6.75
		s3.03-6.75,6.75-6.75c3.72,0,6.75,3.03,6.75,6.75C29.15,79.85,26.13,82.87,22.41,82.87z M34.55,77.86v-3.55l3,1.81L34.55,77.86z
		 M49.85,82.87c-3.72,0-6.75-3.03-6.75-6.75c0-3.72,3.03-6.75,6.75-6.75s6.75,3.03,6.75,6.75C56.6,79.85,53.57,82.87,49.85,82.87z
		 M61.99,77.86v-3.55l3,1.81L61.99,77.86z M77.3,82.87c-3.72,0-6.75-3.03-6.75-6.75c0-3.72,3.03-6.75,6.75-6.75
		c3.72,0,6.75,3.03,6.75,6.75S81.02,82.87,77.3,82.87z"/>
	<path d="M49.85,71.33c-2.64,0-4.79,2.15-4.79,4.79s2.15,4.79,4.79,4.79s4.79-2.15,4.79-4.79C54.65,73.48,52.5,71.33,49.85,71.33z
		 M49.85,79.8c-2.03,0-3.67-1.65-3.67-3.67c0-2.03,1.65-3.67,3.67-3.67s3.67,1.65,3.67,3.67C53.53,78.15,51.88,79.8,49.85,79.8z"/>
	<path d="M25.31,72.71L21,77.42l-1.44-2.34c-0.16-0.26-0.51-0.35-0.77-0.19c-0.26,0.16-0.35,0.51-0.19,0.77l1.82,2.98
		c0.09,0.15,0.25,0.25,0.42,0.27c0.02,0,0.04,0,0.05,0c0.16,0,0.31-0.07,0.41-0.18l4.81-5.27c0.21-0.23,0.19-0.58-0.04-0.79
		C25.87,72.46,25.52,72.48,25.31,72.71L25.31,72.71z"/>
	<path d="M52.92,42.19c0.26,1.18,1.31,2.06,2.56,2.06c1.25,0,2.3-0.89,2.56-2.06h2.08c0.72,0,1.38-0.36,1.76-0.97
		c0.38-0.61,0.43-1.36,0.12-2.01l-1.64-3.43c-0.56-1.18-1.77-1.94-3.07-1.94h-1.24v-3.82c0-0.31-0.25-0.56-0.56-0.56h-15.7
		c-0.31,0-0.56,0.25-0.56,0.56v3.82H37c-0.31,0-0.56,0.25-0.56,0.56c0,0.31,0.25,0.56,0.56,0.56h2.22v1.46H37
		c-0.31,0-0.56,0.25-0.56,0.56c0,0.31,0.25,0.56,0.56,0.56h2.22v4.08c0,0.31,0.25,0.56,0.56,0.56h1.92
		c0.26,1.18,1.31,2.06,2.56,2.06c1.25,0,2.3-0.89,2.56-2.06L52.92,42.19L52.92,42.19z M55.48,43.13c-0.83,0-1.5-0.67-1.5-1.5
		c0-0.83,0.67-1.5,1.5-1.5c0.83,0,1.5,0.67,1.5,1.5C56.98,42.46,56.31,43.13,55.48,43.13z M57.28,34.97c0.88,0,1.68,0.51,2.06,1.3
		l1.64,3.43c0.15,0.3,0.13,0.64-0.05,0.93c-0.18,0.28-0.48,0.45-0.81,0.45h-2.08c-0.22-1-1-1.78-2-2v-4.1L57.28,34.97z M40.34,37.55
		h3.91c0.31,0,0.56-0.25,0.56-0.56c0-0.31-0.25-0.56-0.56-0.56h-3.91v-1.46h3.91c0.31,0,0.56-0.25,0.56-0.56
		c0-0.31-0.25-0.56-0.56-0.56h-3.91v-3.26h14.58v8.48c-1,0.22-1.78,1-2,2l-6.11,0C46.55,39.89,45.5,39,44.25,39
		c-1.25,0-2.3,0.89-2.56,2.06h-1.35L40.34,37.55z M44.25,43.13c-0.83,0-1.5-0.67-1.5-1.5c0-0.83,0.67-1.5,1.5-1.5
		c0.83,0,1.5,0.67,1.5,1.5C45.75,42.46,45.08,43.13,44.25,43.13z"/>
	<path d="M38.13,28.16h10.72c0.31,0,0.56-0.25,0.56-0.56s-0.25-0.56-0.56-0.56l-10.72,0c-0.31,0-0.56,0.25-0.56,0.56
		S37.82,28.16,38.13,28.16L38.13,28.16z"/>
	<path d="M44.25,25.9h4.6c0.31,0,0.56-0.25,0.56-0.56c0-0.31-0.25-0.56-0.56-0.56h-4.6c-0.31,0-0.56,0.25-0.56,0.56
		C43.69,25.65,43.94,25.9,44.25,25.9z"/>
	<path d="M49.5,66.08c0.1,0.09,0.23,0.13,0.36,0.13c0.13,0,0.26-0.05,0.37-0.14c0.69-0.6,17.01-14.92,17.01-30.69
		c0-9.58-7.8-17.38-17.38-17.38s-17.38,7.8-17.38,17.38C32.48,51.71,48.8,65.5,49.5,66.08L49.5,66.08z M49.85,19.12
		c8.96,0,16.26,7.29,16.26,16.26c0,13.99-13.83,27.3-16.26,29.52C47.4,62.74,33.6,49.86,33.6,35.38
		C33.6,26.41,40.89,19.12,49.85,19.12L49.85,19.12z"/>
</g>
</svg>
