<?xml version="1.0" encoding="utf-8"?>
<!-- Generator: Adobe Illustrator 23.0.1, SVG Export Plug-In . SVG Version: 6.00 Build 0)  -->
<svg version="1.1" id="Layer_1" xmlns="http://www.w3.org/2000/svg" xmlns:xlink="http://www.w3.org/1999/xlink" x="0px" y="0px"
	 viewBox="0 0 100 100" style="enable-background:new 0 0 100 100;" xml:space="preserve">
<style type="text/css">
	.st0{fill:#FFFFFF;}
</style>
<path class="st0" d="M65.43,59.85c-1.59,0-2.95-0.22-4.31-0.49c0.81-0.59,1.36-1.51,1.47-2.55h2.58c0.5,0,0.91-0.41,0.91-0.91l0-5.7
	c0-0.15-0.04-0.3-0.11-0.43l-4.51-8.44c-0.16-0.3-0.47-0.48-0.8-0.48h-7.35v-1.9c0-0.18,0.01-1.81-1.14-3
	c-0.73-0.75-1.74-1.13-2.98-1.13H27.64c-0.5,0-0.91,0.41-0.91,0.91V55.9c0,0.5,0.41,0.91,0.91,0.91h1.48
	c0.11,1.11,0.73,2.07,1.61,2.65c-1.22,0.01-2.43,0.23-3.54,0.88c-0.43,0.25-0.58,0.81-0.32,1.24c0.25,0.43,0.81,0.58,1.24,0.32
	c1.67-0.99,3.79-0.63,6.03-0.25c0.96,0.16,1.96,0.33,2.91,0.38c0.31,0.01,0.61,0.02,0.91,0.02c2.05,0,3.96-0.31,5.82-0.62
	c1.02-0.17,1.99-0.33,2.93-0.42c0.76-0.08,1.44,0.03,2.17,0.14c0.77,0.12,1.56,0.24,2.46,0.16c0.81-0.07,1.5-0.37,2.1-0.62
	c0.71-0.3,1.32-0.56,2.09-0.5c1.37,0.11,2.61,0.39,3.93,0.67c1.8,0.39,3.67,0.8,5.95,0.8c0.5,0,0.91-0.41,0.91-0.91
	C66.34,60.26,65.93,59.85,65.43,59.85L65.43,59.85z M57.17,56.43c0-1,0.81-1.82,1.82-1.82c1,0,1.82,0.81,1.82,1.82
	c0,1-0.81,1.82-1.82,1.82C57.98,58.25,57.17,57.43,57.17,56.43z M60.13,42.66l3.44,6.44h-6.43v-2.64h1.5c0.5,0,0.91-0.41,0.91-0.91
	c0-0.5-0.41-0.91-0.91-0.91h-2.41c-0.5,0-0.91,0.41-0.91,0.91v4.46c0,0.5,0.41,0.91,0.91,0.91h8.04v4.08h-1.95
	c-0.56-1.29-1.84-2.19-3.33-2.19s-2.77,0.9-3.33,2.19l-2.33,0V42.66L60.13,42.66z M28.55,36.62h20.64c0.74,0,1.29,0.19,1.67,0.58
	c0.64,0.65,0.64,1.69,0.64,1.72v16.07h-5.76c-0.01,0-0.03,0-0.04,0c-0.56-1.29-1.84-2.19-3.33-2.19c-1.49,0-2.77,0.9-3.33,2.19
	h-2.97c-0.56-1.29-1.84-2.19-3.33-2.19c-1.49,0-2.77,0.9-3.33,2.19h-0.86L28.55,36.62z M42.37,58.25c-1,0-1.82-0.81-1.82-1.82
	s0.81-1.82,1.82-1.82c1,0,1.82,0.81,1.82,1.82C44.19,57.44,43.37,58.25,42.37,58.25z M32.74,58.25c-1,0-1.82-0.81-1.82-1.82
	s0.81-1.82,1.82-1.82c1,0,1.82,0.81,1.82,1.82C34.55,57.44,33.74,58.25,32.74,58.25z M37.15,60.22c-0.84-0.04-1.74-0.19-2.7-0.35
	c-0.12-0.02-0.24-0.04-0.36-0.06c1.23-0.49,2.12-1.63,2.26-3h2.41c0.16,1.53,1.27,2.78,2.73,3.15
	C40.08,60.15,38.64,60.29,37.15,60.22L37.15,60.22z M52.74,59.02c-0.55,0.23-1.02,0.43-1.55,0.48c-0.68,0.06-1.33-0.04-2.02-0.14
	c-0.81-0.12-1.65-0.25-2.64-0.15c-0.74,0.08-1.49,0.19-2.25,0.31c0.93-0.58,1.58-1.56,1.7-2.71h9.39c0.06,0.59,0.26,1.13,0.57,1.6
	c-0.08-0.01-0.16-0.02-0.24-0.03C54.47,58.28,53.55,58.67,52.74,59.02L52.74,59.02z"/>
</svg>
